<?xml version="1.0" encoding="UTF-8" standalone="no"?><!DOCTYPE svg PUBLIC "-//W3C//DTD SVG 1.1//EN" "http://www.w3.org/Graphics/SVG/1.1/DTD/svg11.dtd"><svg width="100%" height="100%" viewBox="0 0 3334 2500" version="1.1" xmlns="http://www.w3.org/2000/svg" xmlns:xlink="http://www.w3.org/1999/xlink" xml:space="preserve" xmlns:serif="http://www.serif.com/" style="fill-rule:evenodd;clip-rule:evenodd;stroke-linecap:square;stroke-miterlimit:1.5;"><path d="M2754.92,489.823l0,1638.88c0,113.065 -91.794,204.859 -204.86,204.859l-1815.64,0c-113.065,0 -204.86,-91.794 -204.86,-204.859l0,-1638.88c0,-113.065 91.795,-204.86 204.86,-204.86l1815.64,0c113.066,0 204.86,91.795 204.86,204.86Z" style="fill:#f190c4;"/><path d="M2554.92,406.489l0,1638.88c0,113.065 -91.794,204.86 -204.86,204.86l-1815.64,-0c-113.065,-0 -204.86,-91.795 -204.86,-204.86l0,-1638.88c0,-113.065 91.795,-204.859 204.86,-204.859l1815.64,-0c113.066,-0 204.86,91.794 204.86,204.859Z" style="fill:#fff;"/><path d="M2671.94,403.738l0,1638.88c0,113.065 -91.794,204.859 -204.859,204.859l-1839.07,0c-113.065,0 -204.859,-91.794 -204.859,-204.859l-0,-1638.88c-0,-113.065 91.794,-204.86 204.859,-204.86l1839.07,0c113.065,0 204.859,91.795 204.859,204.86Z" style="fill:#ebebeb;"/><path d="M2167.71,1819.14l-1174.14,-1232.78" style="fill:none;stroke:#000;stroke-width:187.5px;"/><path d="M913.894,1836.48l1245.75,-1258.32" style="fill:none;stroke:#000;stroke-width:187.5px;"/></svg>