<?xml version="1.0" encoding="UTF-8" standalone="no"?><!DOCTYPE svg PUBLIC "-//W3C//DTD SVG 1.1//EN" "http://www.w3.org/Graphics/SVG/1.1/DTD/svg11.dtd"><svg width="100%" height="100%" viewBox="0 0 92605 42467" version="1.1" xmlns="http://www.w3.org/2000/svg" xmlns:xlink="http://www.w3.org/1999/xlink" xml:space="preserve" xmlns:serif="http://www.serif.com/" style="fill-rule:evenodd;clip-rule:evenodd;stroke-linecap:square;stroke-linejoin:round;stroke-miterlimit:2;"><g id="Layer1"><g><path d="M5172.39,23671.7c-915.51,-0 -1656.83,-245.081 -2223.96,-735.244c-567.131,-490.163 -870.951,-1172.74 -911.46,-2047.75l-12.153,-486.112l12.153,-498.265c32.408,-875.001 334.202,-1559.61 905.383,-2053.82c571.181,-494.214 1314.53,-741.321 2230.04,-741.321c688.659,0 1269.97,123.554 1743.93,370.661c473.959,247.106 826.39,542.824 1057.29,887.153c230.903,344.329 354.456,658.277 370.66,941.842c8.102,81.018 -18.229,151.91 -78.993,212.674c-60.764,60.764 -135.706,91.145 -224.827,91.145l-1543.4,0c-89.121,0 -157.987,-20.254 -206.598,-60.763c-48.611,-40.51 -93.171,-101.274 -133.68,-182.292c-97.223,-251.158 -220.776,-429.399 -370.661,-534.723c-149.884,-105.324 -342.303,-157.986 -577.257,-157.986c-664.353,-0 -1008.68,429.398 -1032.99,1288.19l-12.153,461.807l12.153,401.042c16.203,437.5 111.4,759.549 285.59,966.147c174.19,206.597 423.322,309.896 747.397,309.896c251.157,-0 449.653,-52.662 595.487,-157.987c145.833,-105.324 263.31,-283.565 352.431,-534.722c40.509,-81.019 85.069,-141.783 133.68,-182.292c48.611,-40.51 117.477,-60.764 206.598,-60.764l1543.4,-0c81.019,-0 151.91,26.331 212.674,78.993c60.764,52.662 91.146,119.502 91.146,200.521c0,259.26 -111.401,563.079 -334.202,911.459c-222.801,348.38 -573.206,654.226 -1051.22,917.536c-478.01,263.311 -1073.5,394.966 -1786.46,394.966Z" style="fill-rule:nonzero;stroke:#000;stroke-width:3616.83px;"/><path d="M12427.6,23671.7c-1004.63,-0 -1778.36,-239.005 -2321.18,-717.015c-542.825,-478.01 -838.543,-1150.46 -887.154,-2017.36c-8.102,-105.324 -12.153,-287.616 -12.153,-546.876c0,-259.259 4.051,-441.551 12.153,-546.875c48.611,-858.798 352.431,-1529.23 911.459,-2011.29c559.029,-482.061 1324.65,-723.092 2296.88,-723.092c980.325,0 1750,241.031 2309.03,723.092c559.029,482.06 862.849,1152.49 911.46,2011.29c8.102,105.324 12.153,287.616 12.153,546.875c-0,259.26 -4.051,441.552 -12.153,546.876c-48.611,866.899 -344.329,1539.35 -887.154,2017.36c-542.825,478.01 -1320.6,717.015 -2333.34,717.015Zm0,-1482.64c356.482,0 619.792,-107.349 789.932,-322.049c170.139,-214.699 267.361,-544.85 291.666,-990.452c8.102,-81.019 12.153,-243.056 12.153,-486.112c0,-243.056 -4.051,-405.093 -12.153,-486.112c-24.305,-437.5 -123.553,-765.625 -297.743,-984.376c-174.19,-218.75 -435.475,-328.125 -783.855,-328.125c-672.454,0 -1028.94,437.5 -1069.45,1312.5l-12.152,486.112l12.152,486.112c16.204,445.602 111.401,775.753 285.591,990.452c174.19,214.7 435.475,322.049 783.855,322.049Z" style="fill-rule:nonzero;stroke:#000;stroke-width:3616.83px;"/><path d="M17167.2,23550.1c-81.019,0 -151.91,-30.382 -212.674,-91.146c-60.764,-60.764 -91.146,-131.655 -91.146,-212.674l0,-8020.84c0,-89.121 30.382,-162.038 91.146,-218.751c60.764,-56.713 131.655,-85.069 212.674,-85.069l1434.03,-0c89.121,-0 162.037,28.356 218.75,85.069c56.713,56.713 85.07,129.63 85.07,218.751l0,8020.84c0,89.121 -28.357,162.037 -85.07,218.75c-56.713,56.713 -129.629,85.07 -218.75,85.07l-1434.03,0Z" style="fill-rule:nonzero;stroke:#000;stroke-width:3616.83px;"/><path d="M20642.9,23550.1c-81.018,0 -151.91,-30.382 -212.674,-91.146c-60.764,-60.764 -91.146,-131.655 -91.146,-212.674l0,-8020.84c0,-89.121 30.382,-162.038 91.146,-218.751c60.764,-56.713 131.656,-85.069 212.674,-85.069l1434.03,-0c89.12,-0 162.037,28.356 218.75,85.069c56.713,56.713 85.069,129.63 85.069,218.751l0,8020.84c0,89.121 -28.356,162.037 -85.069,218.75c-56.713,56.713 -129.63,85.07 -218.75,85.07l-1434.03,0Z" style="fill-rule:nonzero;stroke:#000;stroke-width:3616.83px;"/><path d="M25710.6,23671.7c-429.398,-0 -820.313,-83.044 -1172.74,-249.132c-352.431,-166.088 -627.894,-392.941 -826.39,-680.557c-198.495,-287.616 -297.743,-605.614 -297.743,-953.994c-0,-559.028 228.877,-1008.68 686.632,-1348.96c457.756,-340.278 1087.67,-575.232 1889.76,-704.862l1519.1,-230.903l0,-170.139c0,-307.87 -64.814,-534.723 -194.444,-680.556c-129.63,-145.834 -348.38,-218.75 -656.251,-218.75c-186.343,-0 -340.278,32.407 -461.806,97.222c-121.528,64.815 -247.107,153.935 -376.737,267.361c-113.426,97.223 -198.495,162.038 -255.208,194.445c-24.306,64.815 -68.866,97.222 -133.681,97.222l-1324.65,0c-81.019,0 -147.859,-26.331 -200.521,-78.993c-52.662,-52.662 -74.942,-115.451 -66.841,-188.368c8.102,-218.75 115.452,-461.806 322.049,-729.167c206.598,-267.362 522.57,-498.265 947.918,-692.71c425.348,-194.444 949.943,-291.667 1573.79,-291.667c996.529,0 1733.8,220.776 2211.81,662.328c478.01,441.551 717.014,1035.01 717.014,1780.38l0,3694.45c0,81.019 -28.356,151.91 -85.069,212.674c-56.713,60.764 -129.63,91.146 -218.75,91.146l-1409.72,-0c-81.019,-0 -151.91,-30.382 -212.674,-91.146c-60.764,-60.764 -91.146,-131.655 -91.146,-212.674l0,-425.348c-178.241,251.158 -427.373,455.73 -747.397,613.716c-320.023,157.987 -698.785,236.98 -1136.29,236.98Zm571.182,-1385.42c372.685,-0 674.479,-121.528 905.383,-364.584c230.903,-243.056 346.354,-599.538 346.354,-1069.45l0,-170.139l-1032.99,182.292c-729.168,129.63 -1093.75,384.838 -1093.75,765.626c-0,202.546 85.069,362.558 255.208,480.035c170.139,117.477 376.737,176.216 619.793,176.216Z" style="fill-rule:nonzero;stroke:#000;stroke-width:3616.83px;"/><path d="M34849.5,23671.7c-810.186,-0 -1438.08,-271.412 -1883.68,-814.237l-0,388.889c-0,81.019 -28.357,151.91 -85.07,212.674c-56.713,60.764 -129.629,91.146 -218.75,91.146l-1373.27,0c-81.019,0 -151.91,-30.382 -212.674,-91.146c-60.764,-60.764 -91.146,-131.655 -91.146,-212.674l-0,-8020.84c-0,-89.121 30.382,-162.038 91.146,-218.751c60.764,-56.713 131.655,-85.069 212.674,-85.069l1482.64,-0c89.121,-0 162.038,28.356 218.751,85.069c56.713,56.713 85.069,129.63 85.069,218.751l0,2600.7c453.704,-478.01 1045.14,-717.015 1774.31,-717.015c785.88,0 1405.67,255.209 1859.38,765.626c453.704,510.418 696.76,1203.13 729.167,2078.13c8.102,105.324 12.153,251.157 12.153,437.5c0,178.241 -4.051,320.024 -12.153,425.348c-40.509,907.408 -283.565,1610.25 -729.167,2108.51c-445.603,498.265 -1065.39,747.397 -1859.38,747.397Zm-656.251,-1628.47c380.787,-0 654.225,-113.426 820.313,-340.278c166.089,-226.852 261.285,-538.774 285.591,-935.765c16.204,-162.038 24.306,-287.616 24.306,-376.737c-0,-89.12 -8.102,-214.699 -24.306,-376.736c-24.306,-396.992 -119.502,-708.913 -285.591,-935.765c-166.088,-226.852 -439.526,-340.279 -820.313,-340.279c-356.482,0 -627.894,109.376 -814.237,328.126c-186.343,218.75 -287.616,494.213 -303.82,826.39l-12.153,449.653l12.153,461.806c24.306,364.584 123.553,662.327 297.743,893.23c174.19,230.903 447.628,346.355 820.314,346.355Z" style="fill-rule:nonzero;stroke:#000;stroke-width:3616.83px;"/><path d="M41642.9,23671.7c-1004.63,-0 -1778.36,-239.005 -2321.18,-717.015c-542.825,-478.01 -838.543,-1150.46 -887.154,-2017.36c-8.102,-105.324 -12.153,-287.616 -12.153,-546.876c0,-259.259 4.051,-441.551 12.153,-546.875c48.611,-858.798 352.431,-1529.23 911.46,-2011.29c559.028,-482.061 1324.65,-723.092 2296.88,-723.092c980.325,0 1750,241.031 2309.03,723.092c559.028,482.06 862.848,1152.49 911.459,2011.29c8.102,105.324 12.153,287.616 12.153,546.875c-0,259.26 -4.051,441.552 -12.153,546.876c-48.611,866.899 -344.329,1539.35 -887.154,2017.36c-542.824,478.01 -1320.6,717.015 -2333.34,717.015Zm0,-1482.64c356.482,0 619.793,-107.349 789.932,-322.049c170.139,-214.699 267.361,-544.85 291.667,-990.452c8.102,-81.019 12.152,-243.056 12.152,-486.112c0,-243.056 -4.05,-405.093 -12.152,-486.112c-24.306,-437.5 -123.554,-765.625 -297.744,-984.376c-174.19,-218.75 -435.475,-328.125 -783.855,-328.125c-672.454,0 -1028.94,437.5 -1069.44,1312.5l-12.153,486.112l12.153,486.112c16.203,445.602 111.4,775.753 285.59,990.452c174.19,214.7 435.475,322.049 783.855,322.049Z" style="fill-rule:nonzero;stroke:#000;stroke-width:3616.83px;"/><path d="M46382.5,23550.1c-89.121,0 -162.037,-28.357 -218.75,-85.07c-56.713,-56.713 -85.07,-129.629 -85.07,-218.75l0,-5711.81c0,-89.12 28.357,-162.037 85.07,-218.75c56.713,-56.713 129.629,-85.07 218.75,-85.07l1397.57,0c89.12,0 164.063,30.382 224.827,91.146c60.764,60.764 91.146,131.656 91.146,212.674l-0,486.112c445.602,-526.621 1045.14,-789.932 1798.61,-789.932l534.723,0c89.12,0 162.037,28.357 218.75,85.07c56.713,56.713 85.069,129.63 85.069,218.75l0,1251.74c0,81.018 -28.356,151.91 -85.069,212.674c-56.713,60.763 -129.63,91.145 -218.75,91.145l-1178.82,0c-332.177,0 -589.411,91.146 -771.702,273.438c-182.292,182.292 -273.438,439.526 -273.438,771.703l-0,3111.11c-0,89.121 -30.382,162.037 -91.146,218.75c-60.764,56.713 -135.706,85.07 -224.827,85.07l-1506.95,-0Z" style="fill-rule:nonzero;stroke:#000;stroke-width:3616.83px;"/><path d="M53382.5,23671.7c-429.399,-0 -820.313,-83.044 -1172.74,-249.132c-352.431,-166.088 -627.895,-392.941 -826.39,-680.557c-198.496,-287.616 -297.744,-605.614 -297.744,-953.994c0,-559.028 228.878,-1008.68 686.633,-1348.96c457.755,-340.278 1087.67,-575.232 1889.76,-704.862l1519.1,-230.903l0,-170.139c0,-307.87 -64.815,-534.723 -194.445,-680.556c-129.629,-145.834 -348.38,-218.75 -656.25,-218.75c-186.343,-0 -340.278,32.407 -461.806,97.222c-121.528,64.815 -247.107,153.935 -376.737,267.361c-113.426,97.223 -198.496,162.038 -255.209,194.445c-24.305,64.815 -68.865,97.222 -133.68,97.222l-1324.65,0c-81.018,0 -147.859,-26.331 -200.521,-78.993c-52.662,-52.662 -74.942,-115.451 -66.84,-188.368c8.102,-218.75 115.452,-461.806 322.049,-729.167c206.597,-267.362 522.57,-498.265 947.918,-692.71c425.347,-194.444 949.943,-291.667 1573.79,-291.667c996.529,0 1733.8,220.776 2211.81,662.328c478.01,441.551 717.015,1035.01 717.015,1780.38l0,3694.45c0,81.019 -28.356,151.91 -85.069,212.674c-56.713,60.764 -129.63,91.146 -218.751,91.146l-1409.72,-0c-81.018,-0 -151.909,-30.382 -212.673,-91.146c-60.764,-60.764 -91.146,-131.655 -91.146,-212.674l-0,-425.348c-178.241,251.158 -427.374,455.73 -747.397,613.716c-320.024,157.987 -698.786,236.98 -1136.29,236.98Zm571.181,-1385.42c372.686,-0 674.48,-121.528 905.383,-364.584c230.903,-243.056 346.355,-599.538 346.355,-1069.45l-0,-170.139l-1032.99,182.292c-729.167,129.63 -1093.75,384.838 -1093.75,765.626c0,202.546 85.07,362.558 255.209,480.035c170.139,117.477 376.736,176.216 619.792,176.216Z" style="fill-rule:nonzero;stroke:#000;stroke-width:3616.83px;"/><path d="M61840.9,23550.1c-1677.09,0 -2515.63,-798.033 -2515.63,-2394.1l0,-2333.34l-947.918,0c-89.12,0 -164.062,-28.356 -224.826,-85.07c-60.764,-56.713 -91.146,-129.629 -91.146,-218.75l-0,-984.376c-0,-89.12 30.382,-162.037 91.146,-218.75c60.764,-56.713 135.706,-85.07 224.826,-85.07l947.918,0l0,-2005.21c0,-89.121 30.382,-162.038 91.146,-218.751c60.764,-56.713 131.655,-85.069 212.674,-85.069l1409.72,-0c89.12,-0 162.037,28.356 218.75,85.069c56.713,56.713 85.069,129.63 85.069,218.751l0,2005.21l1519.1,0c89.121,0 164.063,28.357 224.827,85.07c60.764,56.713 91.146,129.63 91.146,218.75l0,984.376c0,89.121 -30.382,162.037 -91.146,218.75c-60.764,56.714 -135.706,85.07 -224.827,85.07l-1519.1,0l0,2163.2c0,599.538 230.904,899.307 692.71,899.307l935.765,-0c89.12,-0 162.037,28.356 218.75,85.069c56.713,56.713 85.069,129.63 85.069,218.75l0,1057.29c0,81.019 -28.356,151.91 -85.069,212.674c-56.713,60.764 -129.63,91.146 -218.75,91.146l-1130.21,-0Z" style="fill-rule:nonzero;stroke:#000;stroke-width:3616.83px;"/><path d="M64575.2,16319.2c-89.12,-0 -162.037,-28.357 -218.75,-85.07c-56.713,-56.713 -85.07,-129.629 -85.07,-218.75l0,-1093.75c0,-89.121 28.357,-162.037 85.07,-218.75c56.713,-56.713 129.63,-85.07 218.75,-85.07l1458.34,0c89.121,0 162.037,28.357 218.75,85.07c56.713,56.713 85.07,129.629 85.07,218.75l-0,1093.75c-0,89.121 -28.357,162.037 -85.07,218.75c-56.713,56.713 -129.629,85.07 -218.75,85.07l-1458.34,-0Zm12.153,7230.91c-89.121,0 -162.037,-28.357 -218.75,-85.07c-56.713,-56.713 -85.07,-129.629 -85.07,-218.75l0,-5711.81c0,-89.12 28.357,-162.037 85.07,-218.75c56.713,-56.713 129.629,-85.07 218.75,-85.07l1434.03,0c89.121,0 162.038,28.357 218.751,85.07c56.713,56.713 85.069,129.63 85.069,218.75l0,5711.81c0,81.019 -28.356,151.91 -85.069,212.674c-56.713,60.764 -129.63,91.146 -218.751,91.146l-1434.03,0Z" style="fill-rule:nonzero;stroke:#000;stroke-width:3616.83px;"/><path d="M70748.9,23671.7c-1004.63,-0 -1778.36,-239.005 -2321.18,-717.015c-542.825,-478.01 -838.543,-1150.46 -887.154,-2017.36c-8.102,-105.324 -12.153,-287.616 -12.153,-546.876c0,-259.259 4.051,-441.551 12.153,-546.875c48.611,-858.798 352.431,-1529.23 911.46,-2011.29c559.028,-482.061 1324.65,-723.092 2296.88,-723.092c980.325,0 1750,241.031 2309.03,723.092c559.028,482.06 862.848,1152.49 911.459,2011.29c8.102,105.324 12.153,287.616 12.153,546.875c-0,259.26 -4.051,441.552 -12.153,546.876c-48.611,866.899 -344.329,1539.35 -887.154,2017.36c-542.824,478.01 -1320.6,717.015 -2333.34,717.015Zm0,-1482.64c356.482,0 619.793,-107.349 789.932,-322.049c170.139,-214.699 267.361,-544.85 291.667,-990.452c8.102,-81.019 12.152,-243.056 12.152,-486.112c0,-243.056 -4.05,-405.093 -12.152,-486.112c-24.306,-437.5 -123.554,-765.625 -297.744,-984.376c-174.19,-218.75 -435.475,-328.125 -783.855,-328.125c-672.454,0 -1028.94,437.5 -1069.44,1312.5l-12.153,486.112l12.153,486.112c16.203,445.602 111.4,775.753 285.59,990.452c174.19,214.7 435.475,322.049 783.855,322.049Z" style="fill-rule:nonzero;stroke:#000;stroke-width:3616.83px;"/><path d="M75488.4,23550.1c-89.12,0 -162.037,-28.357 -218.75,-85.07c-56.713,-56.713 -85.07,-129.629 -85.07,-218.75l0,-5711.81c0,-89.12 28.357,-162.037 85.07,-218.75c56.713,-56.713 129.63,-85.07 218.75,-85.07l1397.57,0c89.121,0 164.063,28.357 224.827,85.07c60.764,56.713 91.146,129.63 91.146,218.75l-0,461.806c218.75,-267.361 500.29,-482.061 844.619,-644.098c344.329,-162.037 735.244,-243.056 1172.74,-243.056c712.964,0 1292.25,241.031 1737.85,723.092c445.603,482.06 668.404,1156.54 668.404,2023.44l-0,3390.63c-0,81.019 -28.357,151.91 -85.07,212.674c-56.713,60.764 -129.63,91.146 -218.75,91.146l-1531.25,0c-81.018,0 -151.91,-30.382 -212.674,-91.146c-60.764,-60.764 -91.146,-131.655 -91.146,-212.674l0,-3317.71c0,-380.787 -93.171,-674.48 -279.514,-881.077c-186.343,-206.598 -453.704,-309.896 -802.084,-309.896c-340.278,-0 -607.64,103.298 -802.084,309.896c-194.445,206.597 -291.667,500.29 -291.667,881.077l-0,3317.71c-0,81.019 -28.357,151.91 -85.07,212.674c-56.713,60.764 -129.63,91.146 -218.75,91.146l-1519.1,0Z" style="fill-rule:nonzero;stroke:#000;stroke-width:3616.83px;"/><path d="M85599.6,23671.7c-656.251,-0 -1205.15,-93.171 -1646.7,-279.514c-441.551,-186.343 -767.651,-409.144 -978.299,-668.404c-210.649,-259.259 -315.973,-490.162 -315.973,-692.709c0,-81.019 30.382,-147.859 91.146,-200.521c60.764,-52.662 127.604,-78.993 200.521,-78.993l1385.42,-0c48.611,-0 93.172,20.254 133.681,60.764c97.222,64.815 170.139,117.477 218.75,157.986c178.241,129.63 334.202,224.827 467.883,285.591c133.68,60.764 297.743,91.146 492.188,91.146c234.954,-0 427.373,-46.586 577.257,-139.757c149.885,-93.172 224.827,-224.827 224.827,-394.966c0,-137.732 -38.484,-247.107 -115.451,-328.126c-76.968,-81.018 -224.827,-160.011 -443.577,-236.979c-218.751,-76.968 -550.927,-160.012 -996.529,-249.132c-672.455,-137.732 -1188.95,-362.559 -1549.48,-674.48c-360.533,-311.922 -540.799,-731.193 -540.799,-1257.81c-0,-332.176 105.324,-648.149 315.972,-947.918c210.649,-299.769 524.596,-542.825 941.842,-729.167c417.245,-186.343 913.484,-279.515 1488.72,-279.515c575.232,0 1077.55,89.121 1506.95,267.362c429.398,178.241 755.498,394.966 978.299,650.174c222.802,255.209 334.202,488.137 334.202,698.786c0,72.916 -26.331,137.731 -78.993,194.444c-52.662,56.713 -115.451,85.07 -188.368,85.07l-1263.89,-0c-64.814,-0 -125.578,-20.255 -182.291,-60.764c-105.325,-56.713 -198.496,-117.477 -279.515,-182.292c-137.731,-105.324 -267.361,-186.343 -388.889,-243.056c-121.528,-56.713 -271.412,-85.069 -449.653,-85.069c-210.649,-0 -378.762,48.611 -504.341,145.833c-125.579,97.223 -188.368,222.801 -188.368,376.737c-0,121.528 34.432,222.801 103.298,303.82c68.866,81.018 214.7,160.011 437.501,236.979c222.801,76.968 552.952,155.961 990.452,236.979c785.881,137.732 1359.09,380.788 1719.62,729.168c360.533,348.38 540.8,757.524 540.8,1227.43c-0,599.538 -267.362,1079.57 -802.085,1440.11c-534.722,360.533 -1280.09,540.799 -2236.11,540.799Z" style="fill-rule:nonzero;stroke:#000;stroke-width:3616.83px;"/></g><g><path d="M5168.23,23671.7c-915.511,-0 -1656.83,-245.081 -2223.96,-735.244c-567.13,-490.163 -870.95,-1172.74 -911.459,-2047.75l-12.153,-486.112l12.153,-498.265c32.407,-875.001 334.201,-1559.61 905.382,-2053.82c571.182,-494.214 1314.53,-741.321 2230.04,-741.321c688.658,0 1269.97,123.554 1743.92,370.661c473.959,247.106 826.39,542.824 1057.29,887.153c230.903,344.329 354.457,658.277 370.66,941.842c8.102,81.018 -18.229,151.91 -78.993,212.674c-60.764,60.764 -135.706,91.145 -224.826,91.145l-1543.4,0c-89.12,0 -157.986,-20.254 -206.597,-60.763c-48.612,-40.51 -93.172,-101.274 -133.681,-182.292c-97.222,-251.158 -220.776,-429.399 -370.66,-534.723c-149.885,-105.324 -342.304,-157.986 -577.258,-157.986c-664.352,-0 -1008.68,429.398 -1032.99,1288.19l-12.153,461.807l12.153,401.042c16.204,437.5 111.4,759.549 285.59,966.147c174.19,206.597 423.323,309.896 747.397,309.896c251.158,-0 449.653,-52.662 595.487,-157.987c145.833,-105.324 263.31,-283.565 352.431,-534.722c40.509,-81.019 85.069,-141.783 133.681,-182.292c48.611,-40.51 117.477,-60.764 206.597,-60.764l1543.4,-0c81.018,-0 151.909,26.331 212.673,78.993c60.764,52.662 91.146,119.502 91.146,200.521c0,259.26 -111.4,563.079 -334.201,911.459c-222.802,348.38 -573.207,654.226 -1051.22,917.536c-478.01,263.311 -1073.5,394.966 -1786.46,394.966Z" style="fill:#f8e992;fill-rule:nonzero;stroke:#f8e992;stroke-width:2170.13px;"/><path d="M12423.4,23671.7c-1004.63,-0 -1778.36,-239.005 -2321.18,-717.015c-542.825,-478.01 -838.542,-1150.46 -887.154,-2017.36c-8.101,-105.324 -12.152,-287.616 -12.152,-546.876c-0,-259.259 4.051,-441.551 12.152,-546.875c48.612,-858.798 352.431,-1529.23 911.46,-2011.29c559.028,-482.061 1324.65,-723.092 2296.88,-723.092c980.326,0 1750,241.031 2309.03,723.092c559.028,482.06 862.848,1152.49 911.459,2011.29c8.102,105.324 12.153,287.616 12.153,546.875c-0,259.26 -4.051,441.552 -12.153,546.876c-48.611,866.899 -344.329,1539.35 -887.154,2017.36c-542.824,478.01 -1320.6,717.015 -2333.34,717.015Zm0,-1482.64c356.482,0 619.793,-107.349 789.932,-322.049c170.139,-214.699 267.361,-544.85 291.667,-990.452c8.102,-81.019 12.153,-243.056 12.153,-486.112c-0,-243.056 -4.051,-405.093 -12.153,-486.112c-24.306,-437.5 -123.554,-765.625 -297.744,-984.376c-174.19,-218.75 -435.475,-328.125 -783.855,-328.125c-672.454,0 -1028.94,437.5 -1069.44,1312.5l-12.153,486.112l12.153,486.112c16.203,445.602 111.4,775.753 285.59,990.452c174.19,214.7 435.475,322.049 783.855,322.049Z" style="fill:#f8e992;fill-rule:nonzero;stroke:#f8e992;stroke-width:2170.13px;"/><path d="M17163,23550.1c-81.018,0 -151.91,-30.382 -212.674,-91.146c-60.764,-60.764 -91.146,-131.655 -91.146,-212.674l0,-8020.84c0,-89.121 30.382,-162.038 91.146,-218.751c60.764,-56.713 131.656,-85.069 212.674,-85.069l1434.03,-0c89.12,-0 162.037,28.356 218.75,85.069c56.713,56.713 85.069,129.63 85.069,218.751l0,8020.84c0,89.121 -28.356,162.037 -85.069,218.75c-56.713,56.713 -129.63,85.07 -218.75,85.07l-1434.03,0Z" style="fill:#f8e992;fill-rule:nonzero;stroke:#f8e992;stroke-width:2170.13px;"/><path d="M20638.7,23550.1c-81.019,0 -151.91,-30.382 -212.674,-91.146c-60.764,-60.764 -91.146,-131.655 -91.146,-212.674l-0,-8020.84c-0,-89.121 30.382,-162.038 91.146,-218.751c60.764,-56.713 131.655,-85.069 212.674,-85.069l1434.03,-0c89.12,-0 162.037,28.356 218.75,85.069c56.713,56.713 85.07,129.63 85.07,218.751l-0,8020.84c-0,89.121 -28.357,162.037 -85.07,218.75c-56.713,56.713 -129.63,85.07 -218.75,85.07l-1434.03,0Z" style="fill:#f8e992;fill-rule:nonzero;stroke:#f8e992;stroke-width:2170.13px;"/><path d="M25706.4,23671.7c-429.399,-0 -820.314,-83.044 -1172.75,-249.132c-352.431,-166.088 -627.894,-392.941 -826.39,-680.557c-198.495,-287.616 -297.743,-605.614 -297.743,-953.994c0,-559.028 228.878,-1008.68 686.633,-1348.96c457.755,-340.278 1087.67,-575.232 1889.76,-704.862l1519.1,-230.903l-0,-170.139c-0,-307.87 -64.815,-534.723 -194.445,-680.556c-129.63,-145.834 -348.38,-218.75 -656.251,-218.75c-186.342,-0 -340.278,32.407 -461.806,97.222c-121.528,64.815 -247.106,153.935 -376.736,267.361c-113.426,97.223 -198.496,162.038 -255.209,194.445c-24.305,64.815 -68.866,97.222 -133.681,97.222l-1324.65,0c-81.018,0 -147.859,-26.331 -200.521,-78.993c-52.662,-52.662 -74.942,-115.451 -66.84,-188.368c8.102,-218.75 115.451,-461.806 322.049,-729.167c206.597,-267.362 522.57,-498.265 947.917,-692.71c425.348,-194.444 949.944,-291.667 1573.79,-291.667c996.529,0 1733.8,220.776 2211.81,662.328c478.01,441.551 717.015,1035.01 717.015,1780.38l-0,3694.45c-0,81.019 -28.357,151.91 -85.07,212.674c-56.713,60.764 -129.63,91.146 -218.75,91.146l-1409.72,-0c-81.018,-0 -151.91,-30.382 -212.674,-91.146c-60.764,-60.764 -91.146,-131.655 -91.146,-212.674l0,-425.348c-178.241,251.158 -427.373,455.73 -747.396,613.716c-320.024,157.987 -698.786,236.98 -1136.29,236.98Zm571.181,-1385.42c372.685,-0 674.48,-121.528 905.383,-364.584c230.903,-243.056 346.354,-599.538 346.354,-1069.45l0,-170.139l-1032.99,182.292c-729.167,129.63 -1093.75,384.838 -1093.75,765.626c-0,202.546 85.069,362.558 255.208,480.035c170.14,117.477 376.737,176.216 619.793,176.216Z" style="fill:#f8e992;fill-rule:nonzero;stroke:#f8e992;stroke-width:2170.13px;"/><path d="M34845.3,23671.7c-810.186,-0 -1438.08,-271.412 -1883.68,-814.237l0,388.889c0,81.019 -28.356,151.91 -85.069,212.674c-56.713,60.764 -129.63,91.146 -218.75,91.146l-1373.27,0c-81.019,0 -151.91,-30.382 -212.674,-91.146c-60.764,-60.764 -91.146,-131.655 -91.146,-212.674l0,-8020.84c0,-89.121 30.382,-162.038 91.146,-218.751c60.764,-56.713 131.655,-85.069 212.674,-85.069l1482.64,-0c89.12,-0 162.037,28.356 218.75,85.069c56.713,56.713 85.069,129.63 85.069,218.751l0,2600.7c453.705,-478.01 1045.14,-717.015 1774.31,-717.015c785.881,0 1405.67,255.209 1859.38,765.626c453.704,510.418 696.76,1203.13 729.168,2078.13c8.101,105.324 12.152,251.157 12.152,437.5c0,178.241 -4.051,320.024 -12.152,425.348c-40.51,907.408 -283.566,1610.25 -729.168,2108.51c-445.602,498.265 -1065.39,747.397 -1859.38,747.397Zm-656.251,-1628.47c380.788,-0 654.226,-113.426 820.314,-340.278c166.088,-226.852 261.285,-538.774 285.59,-935.765c16.204,-162.038 24.306,-287.616 24.306,-376.737c-0,-89.12 -8.102,-214.699 -24.306,-376.736c-24.305,-396.992 -119.502,-708.913 -285.59,-935.765c-166.088,-226.852 -439.526,-340.279 -820.314,-340.279c-356.482,0 -627.894,109.376 -814.237,328.126c-186.343,218.75 -287.616,494.213 -303.82,826.39l-12.152,449.653l12.152,461.806c24.306,364.584 123.554,662.327 297.744,893.23c174.19,230.903 447.628,346.355 820.313,346.355Z" style="fill:#f8e992;fill-rule:nonzero;stroke:#f8e992;stroke-width:2170.13px;"/><path d="M41638.8,23671.7c-1004.63,-0 -1778.36,-239.005 -2321.18,-717.015c-542.824,-478.01 -838.542,-1150.46 -887.153,-2017.36c-8.102,-105.324 -12.153,-287.616 -12.153,-546.876c-0,-259.259 4.051,-441.551 12.153,-546.875c48.611,-858.798 352.431,-1529.23 911.459,-2011.29c559.028,-482.061 1324.65,-723.092 2296.88,-723.092c980.325,0 1750,241.031 2309.03,723.092c559.028,482.06 862.848,1152.49 911.459,2011.29c8.102,105.324 12.153,287.616 12.153,546.875c0,259.26 -4.051,441.552 -12.153,546.876c-48.611,866.899 -344.329,1539.35 -887.153,2017.36c-542.825,478.01 -1320.6,717.015 -2333.34,717.015Zm-0,-1482.64c356.481,0 619.792,-107.349 789.931,-322.049c170.139,-214.699 267.361,-544.85 291.667,-990.452c8.102,-81.019 12.153,-243.056 12.153,-486.112c-0,-243.056 -4.051,-405.093 -12.153,-486.112c-24.306,-437.5 -123.553,-765.625 -297.743,-984.376c-174.19,-218.75 -435.475,-328.125 -783.855,-328.125c-672.455,0 -1028.94,437.5 -1069.45,1312.5l-12.153,486.112l12.153,486.112c16.204,445.602 111.4,775.753 285.59,990.452c174.19,214.7 435.476,322.049 783.856,322.049Z" style="fill:#f8e992;fill-rule:nonzero;stroke:#f8e992;stroke-width:2170.13px;"/><path d="M46378.3,23550.1c-89.12,0 -162.037,-28.357 -218.75,-85.07c-56.713,-56.713 -85.069,-129.629 -85.069,-218.75l-0,-5711.81c-0,-89.12 28.356,-162.037 85.069,-218.75c56.713,-56.713 129.63,-85.07 218.75,-85.07l1397.57,0c89.121,0 164.063,30.382 224.827,91.146c60.764,60.764 91.146,131.656 91.146,212.674l-0,486.112c445.602,-526.621 1045.14,-789.932 1798.61,-789.932l534.723,0c89.12,0 162.037,28.357 218.75,85.07c56.713,56.713 85.07,129.63 85.07,218.75l-0,1251.74c-0,81.018 -28.357,151.91 -85.07,212.674c-56.713,60.763 -129.63,91.145 -218.75,91.145l-1178.82,0c-332.176,0 -589.41,91.146 -771.702,273.438c-182.292,182.292 -273.438,439.526 -273.438,771.703l0,3111.11c0,89.121 -30.382,162.037 -91.146,218.75c-60.764,56.713 -135.706,85.07 -224.827,85.07l-1506.95,-0Z" style="fill:#f8e992;fill-rule:nonzero;stroke:#f8e992;stroke-width:2170.13px;"/><path d="M53378.4,23671.7c-429.398,-0 -820.313,-83.044 -1172.74,-249.132c-352.431,-166.088 -627.894,-392.941 -826.39,-680.557c-198.496,-287.616 -297.743,-605.614 -297.743,-953.994c-0,-559.028 228.877,-1008.68 686.632,-1348.96c457.756,-340.278 1087.67,-575.232 1889.76,-704.862l1519.1,-230.903l0,-170.139c0,-307.87 -64.814,-534.723 -194.444,-680.556c-129.63,-145.834 -348.38,-218.75 -656.251,-218.75c-186.343,-0 -340.278,32.407 -461.806,97.222c-121.528,64.815 -247.107,153.935 -376.737,267.361c-113.426,97.223 -198.495,162.038 -255.208,194.445c-24.306,64.815 -68.866,97.222 -133.681,97.222l-1324.65,0c-81.019,0 -147.859,-26.331 -200.521,-78.993c-52.662,-52.662 -74.942,-115.451 -66.841,-188.368c8.102,-218.75 115.452,-461.806 322.049,-729.167c206.598,-267.362 522.57,-498.265 947.918,-692.71c425.348,-194.444 949.943,-291.667 1573.79,-291.667c996.529,0 1733.8,220.776 2211.81,662.328c478.01,441.551 717.014,1035.01 717.014,1780.38l0,3694.45c0,81.019 -28.356,151.91 -85.069,212.674c-56.713,60.764 -129.63,91.146 -218.75,91.146l-1409.72,-0c-81.019,-0 -151.91,-30.382 -212.674,-91.146c-60.764,-60.764 -91.146,-131.655 -91.146,-212.674l0,-425.348c-178.241,251.158 -427.373,455.73 -747.397,613.716c-320.023,157.987 -698.785,236.98 -1136.29,236.98Zm571.182,-1385.42c372.685,-0 674.479,-121.528 905.382,-364.584c230.904,-243.056 346.355,-599.538 346.355,-1069.45l0,-170.139l-1032.99,182.292c-729.168,129.63 -1093.75,384.838 -1093.75,765.626c-0,202.546 85.069,362.558 255.208,480.035c170.139,117.477 376.737,176.216 619.793,176.216Z" style="fill:#f8e992;fill-rule:nonzero;stroke:#f8e992;stroke-width:2170.13px;"/><path d="M61836.7,23550.1c-1677.09,0 -2515.63,-798.033 -2515.63,-2394.1l0,-2333.34l-947.917,0c-89.121,0 -164.063,-28.356 -224.827,-85.07c-60.764,-56.713 -91.146,-129.629 -91.146,-218.75l0,-984.376c0,-89.12 30.382,-162.037 91.146,-218.75c60.764,-56.713 135.706,-85.07 224.827,-85.07l947.917,0l0,-2005.21c0,-89.121 30.382,-162.038 91.146,-218.751c60.764,-56.713 131.656,-85.069 212.674,-85.069l1409.72,-0c89.121,-0 162.037,28.356 218.75,85.069c56.713,56.713 85.07,129.63 85.07,218.751l-0,2005.21l1519.1,0c89.12,0 164.062,28.357 224.826,85.07c60.764,56.713 91.146,129.63 91.146,218.75l0,984.376c0,89.121 -30.382,162.037 -91.146,218.75c-60.764,56.714 -135.706,85.07 -224.826,85.07l-1519.1,0l-0,2163.2c-0,599.538 230.903,899.307 692.709,899.307l935.765,-0c89.12,-0 162.037,28.356 218.75,85.069c56.713,56.713 85.07,129.63 85.07,218.75l-0,1057.29c-0,81.019 -28.357,151.91 -85.07,212.674c-56.713,60.764 -129.63,91.146 -218.75,91.146l-1130.21,-0Z" style="fill:#f8e992;fill-rule:nonzero;stroke:#f8e992;stroke-width:2170.13px;"/><path d="M64571.1,16319.2c-89.12,-0 -162.037,-28.357 -218.75,-85.07c-56.713,-56.713 -85.069,-129.629 -85.069,-218.75l-0,-1093.75c-0,-89.121 28.356,-162.037 85.069,-218.75c56.713,-56.713 129.63,-85.07 218.75,-85.07l1458.34,0c89.121,0 162.038,28.357 218.751,85.07c56.713,56.713 85.069,129.629 85.069,218.75l0,1093.75c0,89.121 -28.356,162.037 -85.069,218.75c-56.713,56.713 -129.63,85.07 -218.751,85.07l-1458.34,-0Zm12.153,7230.91c-89.12,0 -162.037,-28.357 -218.75,-85.07c-56.713,-56.713 -85.07,-129.629 -85.07,-218.75l0,-5711.81c0,-89.12 28.357,-162.037 85.07,-218.75c56.713,-56.713 129.63,-85.07 218.75,-85.07l1434.03,0c89.12,0 162.037,28.357 218.75,85.07c56.713,56.713 85.069,129.63 85.069,218.75l0,5711.81c0,81.019 -28.356,151.91 -85.069,212.674c-56.713,60.764 -129.63,91.146 -218.75,91.146l-1434.03,0Z" style="fill:#f8e992;fill-rule:nonzero;stroke:#f8e992;stroke-width:2170.13px;"/><path d="M70744.7,23671.7c-1004.63,-0 -1778.36,-239.005 -2321.18,-717.015c-542.824,-478.01 -838.542,-1150.46 -887.153,-2017.36c-8.102,-105.324 -12.153,-287.616 -12.153,-546.876c-0,-259.259 4.051,-441.551 12.153,-546.875c48.611,-858.798 352.431,-1529.23 911.459,-2011.29c559.028,-482.061 1324.65,-723.092 2296.88,-723.092c980.325,0 1750,241.031 2309.03,723.092c559.028,482.06 862.848,1152.49 911.459,2011.29c8.102,105.324 12.153,287.616 12.153,546.875c0,259.26 -4.051,441.552 -12.153,546.876c-48.611,866.899 -344.329,1539.35 -887.153,2017.36c-542.825,478.01 -1320.6,717.015 -2333.34,717.015Zm-0,-1482.64c356.481,0 619.792,-107.349 789.931,-322.049c170.139,-214.699 267.361,-544.85 291.667,-990.452c8.102,-81.019 12.153,-243.056 12.153,-486.112c-0,-243.056 -4.051,-405.093 -12.153,-486.112c-24.306,-437.5 -123.553,-765.625 -297.743,-984.376c-174.19,-218.75 -435.475,-328.125 -783.855,-328.125c-672.455,0 -1028.94,437.5 -1069.45,1312.5l-12.153,486.112l12.153,486.112c16.204,445.602 111.401,775.753 285.591,990.452c174.19,214.7 435.475,322.049 783.855,322.049Z" style="fill:#f8e992;fill-rule:nonzero;stroke:#f8e992;stroke-width:2170.13px;"/><path d="M75484.3,23550.1c-89.12,0 -162.037,-28.357 -218.75,-85.07c-56.713,-56.713 -85.069,-129.629 -85.069,-218.75l-0,-5711.81c-0,-89.12 28.356,-162.037 85.069,-218.75c56.713,-56.713 129.63,-85.07 218.75,-85.07l1397.57,0c89.121,0 164.063,28.357 224.827,85.07c60.764,56.713 91.146,129.63 91.146,218.75l-0,461.806c218.75,-267.361 500.29,-482.061 844.619,-644.098c344.329,-162.037 735.244,-243.056 1172.74,-243.056c712.964,0 1292.25,241.031 1737.85,723.092c445.602,482.06 668.403,1156.54 668.403,2023.44l0,3390.63c0,81.019 -28.356,151.91 -85.069,212.674c-56.713,60.764 -129.63,91.146 -218.751,91.146l-1531.25,0c-81.019,0 -151.91,-30.382 -212.674,-91.146c-60.764,-60.764 -91.146,-131.655 -91.146,-212.674l-0,-3317.71c-0,-380.787 -93.172,-674.48 -279.514,-881.077c-186.343,-206.598 -453.705,-309.896 -802.085,-309.896c-340.278,-0 -607.639,103.298 -802.084,309.896c-194.445,206.597 -291.667,500.29 -291.667,881.077l0,3317.71c0,81.019 -28.356,151.91 -85.069,212.674c-56.713,60.764 -129.63,91.146 -218.751,91.146l-1519.1,0Z" style="fill:#f8e992;fill-rule:nonzero;stroke:#f8e992;stroke-width:2170.13px;"/><path d="M85595.4,23671.7c-656.251,-0 -1205.15,-93.171 -1646.7,-279.514c-441.552,-186.343 -767.652,-409.144 -978.3,-668.404c-210.648,-259.259 -315.973,-490.162 -315.973,-692.709c0,-81.019 30.382,-147.859 91.146,-200.521c60.764,-52.662 127.605,-78.993 200.521,-78.993l1385.42,-0c48.611,-0 93.171,20.254 133.68,60.764c97.223,64.815 170.139,117.477 218.751,157.986c178.241,129.63 334.201,224.827 467.882,285.591c133.681,60.764 297.744,91.146 492.188,91.146c234.954,-0 427.373,-46.586 577.258,-139.757c149.884,-93.172 224.826,-224.827 224.826,-394.966c0,-137.732 -38.483,-247.107 -115.451,-328.126c-76.968,-81.018 -224.827,-160.011 -443.577,-236.979c-218.75,-76.968 -550.927,-160.012 -996.529,-249.132c-672.454,-137.732 -1188.95,-362.559 -1549.48,-674.48c-360.533,-311.922 -540.799,-731.193 -540.799,-1257.81c-0,-332.176 105.324,-648.149 315.973,-947.918c210.648,-299.769 524.595,-542.825 941.841,-729.167c417.246,-186.343 913.485,-279.515 1488.72,-279.515c575.232,0 1077.55,89.121 1506.95,267.362c429.399,178.241 755.499,394.966 978.3,650.174c222.801,255.209 334.202,488.137 334.202,698.786c-0,72.916 -26.332,137.731 -78.994,194.444c-52.662,56.713 -115.451,85.07 -188.368,85.07l-1263.89,-0c-64.815,-0 -125.579,-20.255 -182.292,-60.764c-105.324,-56.713 -198.496,-117.477 -279.514,-182.292c-137.732,-105.324 -267.362,-186.343 -388.89,-243.056c-121.528,-56.713 -271.412,-85.069 -449.653,-85.069c-210.648,-0 -378.762,48.611 -504.341,145.833c-125.579,97.223 -188.368,222.801 -188.368,376.737c-0,121.528 34.433,222.801 103.299,303.82c68.865,81.018 214.699,160.011 437.5,236.979c222.801,76.968 552.952,155.961 990.453,236.979c785.88,137.732 1359.09,380.788 1719.62,729.168c360.533,348.38 540.799,757.524 540.799,1227.43c-0,599.538 -267.361,1079.57 -802.084,1440.11c-534.723,360.533 -1280.09,540.799 -2236.11,540.799Z" style="fill:#f8e992;fill-rule:nonzero;stroke:#f8e992;stroke-width:2170.13px;"/></g><g><path d="M5168.23,23671.7c-915.511,-0 -1656.83,-245.081 -2223.96,-735.244c-567.13,-490.163 -870.95,-1172.74 -911.459,-2047.75l-12.153,-486.112l12.153,-498.265c32.407,-875.001 334.201,-1559.61 905.382,-2053.82c571.182,-494.214 1314.53,-741.321 2230.04,-741.321c688.658,0 1269.97,123.554 1743.92,370.661c473.959,247.106 826.39,542.824 1057.29,887.153c230.903,344.329 354.457,658.277 370.66,941.842c8.102,81.018 -18.229,151.91 -78.993,212.674c-60.764,60.764 -135.706,91.145 -224.826,91.145l-1543.4,0c-89.12,0 -157.986,-20.254 -206.597,-60.763c-48.612,-40.51 -93.172,-101.274 -133.681,-182.292c-97.222,-251.158 -220.776,-429.399 -370.66,-534.723c-149.885,-105.324 -342.304,-157.986 -577.258,-157.986c-664.352,-0 -1008.68,429.398 -1032.99,1288.19l-12.153,461.807l12.153,401.042c16.204,437.5 111.4,759.549 285.59,966.147c174.19,206.597 423.323,309.896 747.397,309.896c251.158,-0 449.653,-52.662 595.487,-157.987c145.833,-105.324 263.31,-283.565 352.431,-534.722c40.509,-81.019 85.069,-141.783 133.681,-182.292c48.611,-40.51 117.477,-60.764 206.597,-60.764l1543.4,-0c81.018,-0 151.909,26.331 212.673,78.993c60.764,52.662 91.146,119.502 91.146,200.521c0,259.26 -111.4,563.079 -334.201,911.459c-222.802,348.38 -573.207,654.226 -1051.22,917.536c-478.01,263.311 -1073.5,394.966 -1786.46,394.966Z" style="fill-rule:nonzero;stroke:#000;stroke-width:723.46px;stroke-linejoin:miter;"/><path d="M12423.4,23671.7c-1004.63,-0 -1778.36,-239.005 -2321.18,-717.015c-542.825,-478.01 -838.542,-1150.46 -887.154,-2017.36c-8.101,-105.324 -12.152,-287.616 -12.152,-546.876c-0,-259.259 4.051,-441.551 12.152,-546.875c48.612,-858.798 352.431,-1529.23 911.46,-2011.29c559.028,-482.061 1324.65,-723.092 2296.88,-723.092c980.326,0 1750,241.031 2309.03,723.092c559.028,482.06 862.848,1152.49 911.459,2011.29c8.102,105.324 12.153,287.616 12.153,546.875c-0,259.26 -4.051,441.552 -12.153,546.876c-48.611,866.899 -344.329,1539.35 -887.154,2017.36c-542.824,478.01 -1320.6,717.015 -2333.34,717.015Zm0,-1482.64c356.482,0 619.793,-107.349 789.932,-322.049c170.139,-214.699 267.361,-544.85 291.667,-990.452c8.102,-81.019 12.153,-243.056 12.153,-486.112c-0,-243.056 -4.051,-405.093 -12.153,-486.112c-24.306,-437.5 -123.554,-765.625 -297.744,-984.376c-174.19,-218.75 -435.475,-328.125 -783.855,-328.125c-672.454,0 -1028.94,437.5 -1069.44,1312.5l-12.153,486.112l12.153,486.112c16.203,445.602 111.4,775.753 285.59,990.452c174.19,214.7 435.475,322.049 783.855,322.049Z" style="fill-rule:nonzero;stroke:#000;stroke-width:723.46px;stroke-linejoin:miter;"/><path d="M17163,23550.1c-81.018,0 -151.91,-30.382 -212.674,-91.146c-60.764,-60.764 -91.146,-131.655 -91.146,-212.674l0,-8020.84c0,-89.121 30.382,-162.038 91.146,-218.751c60.764,-56.713 131.656,-85.069 212.674,-85.069l1434.03,-0c89.12,-0 162.037,28.356 218.75,85.069c56.713,56.713 85.069,129.63 85.069,218.751l0,8020.84c0,89.121 -28.356,162.037 -85.069,218.75c-56.713,56.713 -129.63,85.07 -218.75,85.07l-1434.03,0Z" style="fill-rule:nonzero;stroke:#000;stroke-width:723.46px;stroke-linejoin:miter;"/><path d="M20638.7,23550.1c-81.019,0 -151.91,-30.382 -212.674,-91.146c-60.764,-60.764 -91.146,-131.655 -91.146,-212.674l-0,-8020.84c-0,-89.121 30.382,-162.038 91.146,-218.751c60.764,-56.713 131.655,-85.069 212.674,-85.069l1434.03,-0c89.12,-0 162.037,28.356 218.75,85.069c56.713,56.713 85.07,129.63 85.07,218.751l-0,8020.84c-0,89.121 -28.357,162.037 -85.07,218.75c-56.713,56.713 -129.63,85.07 -218.75,85.07l-1434.03,0Z" style="fill-rule:nonzero;stroke:#000;stroke-width:723.46px;stroke-linejoin:miter;"/><path d="M25706.4,23671.7c-429.399,-0 -820.314,-83.044 -1172.75,-249.132c-352.431,-166.088 -627.894,-392.941 -826.39,-680.557c-198.495,-287.616 -297.743,-605.614 -297.743,-953.994c0,-559.028 228.878,-1008.68 686.633,-1348.96c457.755,-340.278 1087.67,-575.232 1889.76,-704.862l1519.1,-230.903l-0,-170.139c-0,-307.87 -64.815,-534.723 -194.445,-680.556c-129.63,-145.834 -348.38,-218.75 -656.251,-218.75c-186.342,-0 -340.278,32.407 -461.806,97.222c-121.528,64.815 -247.106,153.935 -376.736,267.361c-113.426,97.223 -198.496,162.038 -255.209,194.445c-24.305,64.815 -68.866,97.222 -133.681,97.222l-1324.65,0c-81.018,0 -147.859,-26.331 -200.521,-78.993c-52.662,-52.662 -74.942,-115.451 -66.84,-188.368c8.102,-218.75 115.451,-461.806 322.049,-729.167c206.597,-267.362 522.57,-498.265 947.917,-692.71c425.348,-194.444 949.944,-291.667 1573.79,-291.667c996.529,0 1733.8,220.776 2211.81,662.328c478.01,441.551 717.015,1035.01 717.015,1780.38l-0,3694.45c-0,81.019 -28.357,151.91 -85.07,212.674c-56.713,60.764 -129.63,91.146 -218.75,91.146l-1409.72,-0c-81.018,-0 -151.91,-30.382 -212.674,-91.146c-60.764,-60.764 -91.146,-131.655 -91.146,-212.674l0,-425.348c-178.241,251.158 -427.373,455.73 -747.396,613.716c-320.024,157.987 -698.786,236.98 -1136.29,236.98Zm571.181,-1385.42c372.685,-0 674.48,-121.528 905.383,-364.584c230.903,-243.056 346.354,-599.538 346.354,-1069.45l0,-170.139l-1032.99,182.292c-729.167,129.63 -1093.75,384.838 -1093.75,765.626c-0,202.546 85.069,362.558 255.208,480.035c170.14,117.477 376.737,176.216 619.793,176.216Z" style="fill-rule:nonzero;stroke:#000;stroke-width:723.46px;stroke-linejoin:miter;"/><path d="M34845.3,23671.7c-810.186,-0 -1438.08,-271.412 -1883.68,-814.237l0,388.889c0,81.019 -28.356,151.91 -85.069,212.674c-56.713,60.764 -129.63,91.146 -218.75,91.146l-1373.27,0c-81.019,0 -151.91,-30.382 -212.674,-91.146c-60.764,-60.764 -91.146,-131.655 -91.146,-212.674l0,-8020.84c0,-89.121 30.382,-162.038 91.146,-218.751c60.764,-56.713 131.655,-85.069 212.674,-85.069l1482.64,-0c89.12,-0 162.037,28.356 218.75,85.069c56.713,56.713 85.069,129.63 85.069,218.751l0,2600.7c453.705,-478.01 1045.14,-717.015 1774.31,-717.015c785.881,0 1405.67,255.209 1859.38,765.626c453.704,510.418 696.76,1203.13 729.168,2078.13c8.101,105.324 12.152,251.157 12.152,437.5c0,178.241 -4.051,320.024 -12.152,425.348c-40.51,907.408 -283.566,1610.25 -729.168,2108.51c-445.602,498.265 -1065.39,747.397 -1859.38,747.397Zm-656.251,-1628.47c380.788,-0 654.226,-113.426 820.314,-340.278c166.088,-226.852 261.285,-538.774 285.59,-935.765c16.204,-162.038 24.306,-287.616 24.306,-376.737c-0,-89.12 -8.102,-214.699 -24.306,-376.736c-24.305,-396.992 -119.502,-708.913 -285.59,-935.765c-166.088,-226.852 -439.526,-340.279 -820.314,-340.279c-356.482,0 -627.894,109.376 -814.237,328.126c-186.343,218.75 -287.616,494.213 -303.82,826.39l-12.152,449.653l12.152,461.806c24.306,364.584 123.554,662.327 297.744,893.23c174.19,230.903 447.628,346.355 820.313,346.355Z" style="fill-rule:nonzero;stroke:#000;stroke-width:723.46px;stroke-linejoin:miter;"/><path d="M41638.8,23671.7c-1004.63,-0 -1778.36,-239.005 -2321.18,-717.015c-542.824,-478.01 -838.542,-1150.46 -887.153,-2017.36c-8.102,-105.324 -12.153,-287.616 -12.153,-546.876c-0,-259.259 4.051,-441.551 12.153,-546.875c48.611,-858.798 352.431,-1529.23 911.459,-2011.29c559.028,-482.061 1324.65,-723.092 2296.88,-723.092c980.325,0 1750,241.031 2309.03,723.092c559.028,482.06 862.848,1152.49 911.459,2011.29c8.102,105.324 12.153,287.616 12.153,546.875c0,259.26 -4.051,441.552 -12.153,546.876c-48.611,866.899 -344.329,1539.35 -887.153,2017.36c-542.825,478.01 -1320.6,717.015 -2333.34,717.015Zm-0,-1482.64c356.481,0 619.792,-107.349 789.931,-322.049c170.139,-214.699 267.361,-544.85 291.667,-990.452c8.102,-81.019 12.153,-243.056 12.153,-486.112c-0,-243.056 -4.051,-405.093 -12.153,-486.112c-24.306,-437.5 -123.553,-765.625 -297.743,-984.376c-174.19,-218.75 -435.475,-328.125 -783.855,-328.125c-672.455,0 -1028.94,437.5 -1069.45,1312.5l-12.153,486.112l12.153,486.112c16.204,445.602 111.4,775.753 285.59,990.452c174.19,214.7 435.476,322.049 783.856,322.049Z" style="fill-rule:nonzero;stroke:#000;stroke-width:723.46px;stroke-linejoin:miter;"/><path d="M46378.3,23550.1c-89.12,0 -162.037,-28.357 -218.75,-85.07c-56.713,-56.713 -85.069,-129.629 -85.069,-218.75l-0,-5711.81c-0,-89.12 28.356,-162.037 85.069,-218.75c56.713,-56.713 129.63,-85.07 218.75,-85.07l1397.57,0c89.121,0 164.063,30.382 224.827,91.146c60.764,60.764 91.146,131.656 91.146,212.674l-0,486.112c445.602,-526.621 1045.14,-789.932 1798.61,-789.932l534.723,0c89.12,0 162.037,28.357 218.75,85.07c56.713,56.713 85.07,129.63 85.07,218.75l-0,1251.74c-0,81.018 -28.357,151.91 -85.07,212.674c-56.713,60.763 -129.63,91.145 -218.75,91.145l-1178.82,0c-332.176,0 -589.41,91.146 -771.702,273.438c-182.292,182.292 -273.438,439.526 -273.438,771.703l0,3111.11c0,89.121 -30.382,162.037 -91.146,218.75c-60.764,56.713 -135.706,85.07 -224.827,85.07l-1506.95,-0Z" style="fill-rule:nonzero;stroke:#000;stroke-width:723.46px;stroke-linejoin:miter;"/><path d="M53378.4,23671.7c-429.398,-0 -820.313,-83.044 -1172.74,-249.132c-352.431,-166.088 -627.894,-392.941 -826.39,-680.557c-198.496,-287.616 -297.743,-605.614 -297.743,-953.994c-0,-559.028 228.877,-1008.68 686.632,-1348.96c457.756,-340.278 1087.67,-575.232 1889.76,-704.862l1519.1,-230.903l0,-170.139c0,-307.87 -64.814,-534.723 -194.444,-680.556c-129.63,-145.834 -348.38,-218.75 -656.251,-218.75c-186.343,-0 -340.278,32.407 -461.806,97.222c-121.528,64.815 -247.107,153.935 -376.737,267.361c-113.426,97.223 -198.495,162.038 -255.208,194.445c-24.306,64.815 -68.866,97.222 -133.681,97.222l-1324.65,0c-81.019,0 -147.859,-26.331 -200.521,-78.993c-52.662,-52.662 -74.942,-115.451 -66.841,-188.368c8.102,-218.75 115.452,-461.806 322.049,-729.167c206.598,-267.362 522.57,-498.265 947.918,-692.71c425.348,-194.444 949.943,-291.667 1573.79,-291.667c996.529,0 1733.8,220.776 2211.81,662.328c478.01,441.551 717.014,1035.01 717.014,1780.38l0,3694.45c0,81.019 -28.356,151.91 -85.069,212.674c-56.713,60.764 -129.63,91.146 -218.75,91.146l-1409.72,-0c-81.019,-0 -151.91,-30.382 -212.674,-91.146c-60.764,-60.764 -91.146,-131.655 -91.146,-212.674l0,-425.348c-178.241,251.158 -427.373,455.73 -747.397,613.716c-320.023,157.987 -698.785,236.98 -1136.29,236.98Zm571.182,-1385.42c372.685,-0 674.479,-121.528 905.382,-364.584c230.904,-243.056 346.355,-599.538 346.355,-1069.45l0,-170.139l-1032.99,182.292c-729.168,129.63 -1093.75,384.838 -1093.75,765.626c-0,202.546 85.069,362.558 255.208,480.035c170.139,117.477 376.737,176.216 619.793,176.216Z" style="fill-rule:nonzero;stroke:#000;stroke-width:723.46px;stroke-linejoin:miter;"/><path d="M61836.7,23550.1c-1677.09,0 -2515.63,-798.033 -2515.63,-2394.1l0,-2333.34l-947.917,0c-89.121,0 -164.063,-28.356 -224.827,-85.07c-60.764,-56.713 -91.146,-129.629 -91.146,-218.75l0,-984.376c0,-89.12 30.382,-162.037 91.146,-218.75c60.764,-56.713 135.706,-85.07 224.827,-85.07l947.917,0l0,-2005.21c0,-89.121 30.382,-162.038 91.146,-218.751c60.764,-56.713 131.656,-85.069 212.674,-85.069l1409.72,-0c89.121,-0 162.037,28.356 218.75,85.069c56.713,56.713 85.07,129.63 85.07,218.751l-0,2005.21l1519.1,0c89.12,0 164.062,28.357 224.826,85.07c60.764,56.713 91.146,129.63 91.146,218.75l0,984.376c0,89.121 -30.382,162.037 -91.146,218.75c-60.764,56.714 -135.706,85.07 -224.826,85.07l-1519.1,0l-0,2163.2c-0,599.538 230.903,899.307 692.709,899.307l935.765,-0c89.12,-0 162.037,28.356 218.75,85.069c56.713,56.713 85.07,129.63 85.07,218.75l-0,1057.29c-0,81.019 -28.357,151.91 -85.07,212.674c-56.713,60.764 -129.63,91.146 -218.75,91.146l-1130.21,-0Z" style="fill-rule:nonzero;stroke:#000;stroke-width:723.46px;stroke-linejoin:miter;"/><path d="M64571.1,16319.2c-89.12,-0 -162.037,-28.357 -218.75,-85.07c-56.713,-56.713 -85.069,-129.629 -85.069,-218.75l-0,-1093.75c-0,-89.121 28.356,-162.037 85.069,-218.75c56.713,-56.713 129.63,-85.07 218.75,-85.07l1458.34,0c89.121,0 162.038,28.357 218.751,85.07c56.713,56.713 85.069,129.629 85.069,218.75l0,1093.75c0,89.121 -28.356,162.037 -85.069,218.75c-56.713,56.713 -129.63,85.07 -218.751,85.07l-1458.34,-0Zm12.153,7230.91c-89.12,0 -162.037,-28.357 -218.75,-85.07c-56.713,-56.713 -85.07,-129.629 -85.07,-218.75l0,-5711.81c0,-89.12 28.357,-162.037 85.07,-218.75c56.713,-56.713 129.63,-85.07 218.75,-85.07l1434.03,0c89.12,0 162.037,28.357 218.75,85.07c56.713,56.713 85.069,129.63 85.069,218.75l0,5711.81c0,81.019 -28.356,151.91 -85.069,212.674c-56.713,60.764 -129.63,91.146 -218.75,91.146l-1434.03,0Z" style="fill-rule:nonzero;stroke:#000;stroke-width:723.46px;stroke-linejoin:miter;"/><path d="M70744.7,23671.7c-1004.63,-0 -1778.36,-239.005 -2321.18,-717.015c-542.824,-478.01 -838.542,-1150.46 -887.153,-2017.36c-8.102,-105.324 -12.153,-287.616 -12.153,-546.876c-0,-259.259 4.051,-441.551 12.153,-546.875c48.611,-858.798 352.431,-1529.23 911.459,-2011.29c559.028,-482.061 1324.65,-723.092 2296.88,-723.092c980.325,0 1750,241.031 2309.03,723.092c559.028,482.06 862.848,1152.49 911.459,2011.29c8.102,105.324 12.153,287.616 12.153,546.875c0,259.26 -4.051,441.552 -12.153,546.876c-48.611,866.899 -344.329,1539.35 -887.153,2017.36c-542.825,478.01 -1320.6,717.015 -2333.34,717.015Zm-0,-1482.64c356.481,0 619.792,-107.349 789.931,-322.049c170.139,-214.699 267.361,-544.85 291.667,-990.452c8.102,-81.019 12.153,-243.056 12.153,-486.112c-0,-243.056 -4.051,-405.093 -12.153,-486.112c-24.306,-437.5 -123.553,-765.625 -297.743,-984.376c-174.19,-218.75 -435.475,-328.125 -783.855,-328.125c-672.455,0 -1028.94,437.5 -1069.45,1312.5l-12.153,486.112l12.153,486.112c16.204,445.602 111.401,775.753 285.591,990.452c174.19,214.7 435.475,322.049 783.855,322.049Z" style="fill-rule:nonzero;stroke:#000;stroke-width:723.46px;stroke-linejoin:miter;"/><path d="M75484.3,23550.1c-89.12,0 -162.037,-28.357 -218.75,-85.07c-56.713,-56.713 -85.069,-129.629 -85.069,-218.75l-0,-5711.81c-0,-89.12 28.356,-162.037 85.069,-218.75c56.713,-56.713 129.63,-85.07 218.75,-85.07l1397.57,0c89.121,0 164.063,28.357 224.827,85.07c60.764,56.713 91.146,129.63 91.146,218.75l-0,461.806c218.75,-267.361 500.29,-482.061 844.619,-644.098c344.329,-162.037 735.244,-243.056 1172.74,-243.056c712.964,0 1292.25,241.031 1737.85,723.092c445.602,482.06 668.403,1156.54 668.403,2023.44l0,3390.63c0,81.019 -28.356,151.91 -85.069,212.674c-56.713,60.764 -129.63,91.146 -218.751,91.146l-1531.25,0c-81.019,0 -151.91,-30.382 -212.674,-91.146c-60.764,-60.764 -91.146,-131.655 -91.146,-212.674l-0,-3317.71c-0,-380.787 -93.172,-674.48 -279.514,-881.077c-186.343,-206.598 -453.705,-309.896 -802.085,-309.896c-340.278,-0 -607.639,103.298 -802.084,309.896c-194.445,206.597 -291.667,500.29 -291.667,881.077l0,3317.71c0,81.019 -28.356,151.91 -85.069,212.674c-56.713,60.764 -129.63,91.146 -218.751,91.146l-1519.1,0Z" style="fill-rule:nonzero;stroke:#000;stroke-width:723.46px;stroke-linejoin:miter;"/><path d="M85595.4,23671.7c-656.251,-0 -1205.15,-93.171 -1646.7,-279.514c-441.552,-186.343 -767.652,-409.144 -978.3,-668.404c-210.648,-259.259 -315.973,-490.162 -315.973,-692.709c0,-81.019 30.382,-147.859 91.146,-200.521c60.764,-52.662 127.605,-78.993 200.521,-78.993l1385.42,-0c48.611,-0 93.171,20.254 133.68,60.764c97.223,64.815 170.139,117.477 218.751,157.986c178.241,129.63 334.201,224.827 467.882,285.591c133.681,60.764 297.744,91.146 492.188,91.146c234.954,-0 427.373,-46.586 577.258,-139.757c149.884,-93.172 224.826,-224.827 224.826,-394.966c0,-137.732 -38.483,-247.107 -115.451,-328.126c-76.968,-81.018 -224.827,-160.011 -443.577,-236.979c-218.75,-76.968 -550.927,-160.012 -996.529,-249.132c-672.454,-137.732 -1188.95,-362.559 -1549.48,-674.48c-360.533,-311.922 -540.799,-731.193 -540.799,-1257.81c-0,-332.176 105.324,-648.149 315.973,-947.918c210.648,-299.769 524.595,-542.825 941.841,-729.167c417.246,-186.343 913.485,-279.515 1488.72,-279.515c575.232,0 1077.55,89.121 1506.95,267.362c429.399,178.241 755.499,394.966 978.3,650.174c222.801,255.209 334.202,488.137 334.202,698.786c-0,72.916 -26.332,137.731 -78.994,194.444c-52.662,56.713 -115.451,85.07 -188.368,85.07l-1263.89,-0c-64.815,-0 -125.579,-20.255 -182.292,-60.764c-105.324,-56.713 -198.496,-117.477 -279.514,-182.292c-137.732,-105.324 -267.362,-186.343 -388.89,-243.056c-121.528,-56.713 -271.412,-85.069 -449.653,-85.069c-210.648,-0 -378.762,48.611 -504.341,145.833c-125.579,97.223 -188.368,222.801 -188.368,376.737c-0,121.528 34.433,222.801 103.299,303.82c68.865,81.018 214.699,160.011 437.5,236.979c222.801,76.968 552.952,155.961 990.453,236.979c785.88,137.732 1359.09,380.788 1719.62,729.168c360.533,348.38 540.799,757.524 540.799,1227.43c-0,599.538 -267.361,1079.57 -802.084,1440.11c-534.723,360.533 -1280.09,540.799 -2236.11,540.799Z" style="fill-rule:nonzero;stroke:#000;stroke-width:723.46px;stroke-linejoin:miter;"/></g><g><path d="M5168.23,23671.7c-915.511,-0 -1656.83,-245.081 -2223.96,-735.244c-567.13,-490.163 -870.95,-1172.74 -911.459,-2047.75l-12.153,-486.112l12.153,-498.265c32.407,-875.001 334.201,-1559.61 905.382,-2053.82c571.182,-494.214 1314.53,-741.321 2230.04,-741.321c688.658,0 1269.97,123.554 1743.92,370.661c473.959,247.106 826.39,542.824 1057.29,887.153c230.903,344.329 354.457,658.277 370.66,941.842c8.102,81.018 -18.229,151.91 -78.993,212.674c-60.764,60.764 -135.706,91.145 -224.826,91.145l-1543.4,0c-89.12,0 -157.986,-20.254 -206.597,-60.763c-48.612,-40.51 -93.172,-101.274 -133.681,-182.292c-97.222,-251.158 -220.776,-429.399 -370.66,-534.723c-149.885,-105.324 -342.304,-157.986 -577.258,-157.986c-664.352,-0 -1008.68,429.398 -1032.99,1288.19l-12.153,461.807l12.153,401.042c16.204,437.5 111.4,759.549 285.59,966.147c174.19,206.597 423.323,309.896 747.397,309.896c251.158,-0 449.653,-52.662 595.487,-157.987c145.833,-105.324 263.31,-283.565 352.431,-534.722c40.509,-81.019 85.069,-141.783 133.681,-182.292c48.611,-40.51 117.477,-60.764 206.597,-60.764l1543.4,-0c81.018,-0 151.909,26.331 212.673,78.993c60.764,52.662 91.146,119.502 91.146,200.521c0,259.26 -111.4,563.079 -334.201,911.459c-222.802,348.38 -573.207,654.226 -1051.22,917.536c-478.01,263.311 -1073.5,394.966 -1786.46,394.966Z" style="fill:#fff;fill-rule:nonzero;"/><path d="M12423.4,23671.7c-1004.63,-0 -1778.36,-239.005 -2321.18,-717.015c-542.825,-478.01 -838.542,-1150.46 -887.154,-2017.36c-8.101,-105.324 -12.152,-287.616 -12.152,-546.876c-0,-259.259 4.051,-441.551 12.152,-546.875c48.612,-858.798 352.431,-1529.23 911.46,-2011.29c559.028,-482.061 1324.65,-723.092 2296.88,-723.092c980.326,0 1750,241.031 2309.03,723.092c559.028,482.06 862.848,1152.49 911.459,2011.29c8.102,105.324 12.153,287.616 12.153,546.875c-0,259.26 -4.051,441.552 -12.153,546.876c-48.611,866.899 -344.329,1539.35 -887.154,2017.36c-542.824,478.01 -1320.6,717.015 -2333.34,717.015Zm0,-1482.64c356.482,0 619.793,-107.349 789.932,-322.049c170.139,-214.699 267.361,-544.85 291.667,-990.452c8.102,-81.019 12.153,-243.056 12.153,-486.112c-0,-243.056 -4.051,-405.093 -12.153,-486.112c-24.306,-437.5 -123.554,-765.625 -297.744,-984.376c-174.19,-218.75 -435.475,-328.125 -783.855,-328.125c-672.454,0 -1028.94,437.5 -1069.44,1312.5l-12.153,486.112l12.153,486.112c16.203,445.602 111.4,775.753 285.59,990.452c174.19,214.7 435.475,322.049 783.855,322.049Z" style="fill:#fff;fill-rule:nonzero;"/><path d="M17163,23550.1c-81.018,0 -151.91,-30.382 -212.674,-91.146c-60.764,-60.764 -91.146,-131.655 -91.146,-212.674l0,-8020.84c0,-89.121 30.382,-162.038 91.146,-218.751c60.764,-56.713 131.656,-85.069 212.674,-85.069l1434.03,-0c89.12,-0 162.037,28.356 218.75,85.069c56.713,56.713 85.069,129.63 85.069,218.751l0,8020.84c0,89.121 -28.356,162.037 -85.069,218.75c-56.713,56.713 -129.63,85.07 -218.75,85.07l-1434.03,0Z" style="fill:#fff;fill-rule:nonzero;"/><path d="M20638.7,23550.1c-81.019,0 -151.91,-30.382 -212.674,-91.146c-60.764,-60.764 -91.146,-131.655 -91.146,-212.674l-0,-8020.84c-0,-89.121 30.382,-162.038 91.146,-218.751c60.764,-56.713 131.655,-85.069 212.674,-85.069l1434.03,-0c89.12,-0 162.037,28.356 218.75,85.069c56.713,56.713 85.07,129.63 85.07,218.751l-0,8020.84c-0,89.121 -28.357,162.037 -85.07,218.75c-56.713,56.713 -129.63,85.07 -218.75,85.07l-1434.03,0Z" style="fill:#fff;fill-rule:nonzero;"/><path d="M25706.4,23671.7c-429.399,-0 -820.314,-83.044 -1172.75,-249.132c-352.431,-166.088 -627.894,-392.941 -826.39,-680.557c-198.495,-287.616 -297.743,-605.614 -297.743,-953.994c0,-559.028 228.878,-1008.68 686.633,-1348.96c457.755,-340.278 1087.67,-575.232 1889.76,-704.862l1519.1,-230.903l-0,-170.139c-0,-307.87 -64.815,-534.723 -194.445,-680.556c-129.63,-145.834 -348.38,-218.75 -656.251,-218.75c-186.342,-0 -340.278,32.407 -461.806,97.222c-121.528,64.815 -247.106,153.935 -376.736,267.361c-113.426,97.223 -198.496,162.038 -255.209,194.445c-24.305,64.815 -68.866,97.222 -133.681,97.222l-1324.65,0c-81.018,0 -147.859,-26.331 -200.521,-78.993c-52.662,-52.662 -74.942,-115.451 -66.84,-188.368c8.102,-218.75 115.451,-461.806 322.049,-729.167c206.597,-267.362 522.57,-498.265 947.917,-692.71c425.348,-194.444 949.944,-291.667 1573.79,-291.667c996.529,0 1733.8,220.776 2211.81,662.328c478.01,441.551 717.015,1035.01 717.015,1780.38l-0,3694.45c-0,81.019 -28.357,151.91 -85.07,212.674c-56.713,60.764 -129.63,91.146 -218.75,91.146l-1409.72,-0c-81.018,-0 -151.91,-30.382 -212.674,-91.146c-60.764,-60.764 -91.146,-131.655 -91.146,-212.674l0,-425.348c-178.241,251.158 -427.373,455.73 -747.396,613.716c-320.024,157.987 -698.786,236.98 -1136.29,236.98Zm571.181,-1385.42c372.685,-0 674.48,-121.528 905.383,-364.584c230.903,-243.056 346.354,-599.538 346.354,-1069.45l0,-170.139l-1032.99,182.292c-729.167,129.63 -1093.75,384.838 -1093.75,765.626c-0,202.546 85.069,362.558 255.208,480.035c170.14,117.477 376.737,176.216 619.793,176.216Z" style="fill:#fff;fill-rule:nonzero;"/><path d="M34845.3,23671.7c-810.186,-0 -1438.08,-271.412 -1883.68,-814.237l0,388.889c0,81.019 -28.356,151.91 -85.069,212.674c-56.713,60.764 -129.63,91.146 -218.75,91.146l-1373.27,0c-81.019,0 -151.91,-30.382 -212.674,-91.146c-60.764,-60.764 -91.146,-131.655 -91.146,-212.674l0,-8020.84c0,-89.121 30.382,-162.038 91.146,-218.751c60.764,-56.713 131.655,-85.069 212.674,-85.069l1482.64,-0c89.12,-0 162.037,28.356 218.75,85.069c56.713,56.713 85.069,129.63 85.069,218.751l0,2600.7c453.705,-478.01 1045.14,-717.015 1774.31,-717.015c785.881,0 1405.67,255.209 1859.38,765.626c453.704,510.418 696.76,1203.13 729.168,2078.13c8.101,105.324 12.152,251.157 12.152,437.5c0,178.241 -4.051,320.024 -12.152,425.348c-40.51,907.408 -283.566,1610.25 -729.168,2108.51c-445.602,498.265 -1065.39,747.397 -1859.38,747.397Zm-656.251,-1628.47c380.788,-0 654.226,-113.426 820.314,-340.278c166.088,-226.852 261.285,-538.774 285.59,-935.765c16.204,-162.038 24.306,-287.616 24.306,-376.737c-0,-89.12 -8.102,-214.699 -24.306,-376.736c-24.305,-396.992 -119.502,-708.913 -285.59,-935.765c-166.088,-226.852 -439.526,-340.279 -820.314,-340.279c-356.482,0 -627.894,109.376 -814.237,328.126c-186.343,218.75 -287.616,494.213 -303.82,826.39l-12.152,449.653l12.152,461.806c24.306,364.584 123.554,662.327 297.744,893.23c174.19,230.903 447.628,346.355 820.313,346.355Z" style="fill:#fff;fill-rule:nonzero;"/><path d="M41638.8,23671.7c-1004.63,-0 -1778.36,-239.005 -2321.18,-717.015c-542.824,-478.01 -838.542,-1150.46 -887.153,-2017.36c-8.102,-105.324 -12.153,-287.616 -12.153,-546.876c-0,-259.259 4.051,-441.551 12.153,-546.875c48.611,-858.798 352.431,-1529.23 911.459,-2011.29c559.028,-482.061 1324.65,-723.092 2296.88,-723.092c980.325,0 1750,241.031 2309.03,723.092c559.028,482.06 862.848,1152.49 911.459,2011.29c8.102,105.324 12.153,287.616 12.153,546.875c0,259.26 -4.051,441.552 -12.153,546.876c-48.611,866.899 -344.329,1539.35 -887.153,2017.36c-542.825,478.01 -1320.6,717.015 -2333.34,717.015Zm-0,-1482.64c356.481,0 619.792,-107.349 789.931,-322.049c170.139,-214.699 267.361,-544.85 291.667,-990.452c8.102,-81.019 12.153,-243.056 12.153,-486.112c-0,-243.056 -4.051,-405.093 -12.153,-486.112c-24.306,-437.5 -123.553,-765.625 -297.743,-984.376c-174.19,-218.75 -435.475,-328.125 -783.855,-328.125c-672.455,0 -1028.94,437.5 -1069.45,1312.5l-12.153,486.112l12.153,486.112c16.204,445.602 111.4,775.753 285.59,990.452c174.19,214.7 435.476,322.049 783.856,322.049Z" style="fill:#fff;fill-rule:nonzero;"/><path d="M46378.3,23550.1c-89.12,0 -162.037,-28.357 -218.75,-85.07c-56.713,-56.713 -85.069,-129.629 -85.069,-218.75l-0,-5711.81c-0,-89.12 28.356,-162.037 85.069,-218.75c56.713,-56.713 129.63,-85.07 218.75,-85.07l1397.57,0c89.121,0 164.063,30.382 224.827,91.146c60.764,60.764 91.146,131.656 91.146,212.674l-0,486.112c445.602,-526.621 1045.14,-789.932 1798.61,-789.932l534.723,0c89.12,0 162.037,28.357 218.75,85.07c56.713,56.713 85.07,129.63 85.07,218.75l-0,1251.74c-0,81.018 -28.357,151.91 -85.07,212.674c-56.713,60.763 -129.63,91.145 -218.75,91.145l-1178.82,0c-332.176,0 -589.41,91.146 -771.702,273.438c-182.292,182.292 -273.438,439.526 -273.438,771.703l0,3111.11c0,89.121 -30.382,162.037 -91.146,218.75c-60.764,56.713 -135.706,85.07 -224.827,85.07l-1506.95,-0Z" style="fill:#fff;fill-rule:nonzero;"/><path d="M53378.4,23671.7c-429.398,-0 -820.313,-83.044 -1172.74,-249.132c-352.431,-166.088 -627.894,-392.941 -826.39,-680.557c-198.496,-287.616 -297.743,-605.614 -297.743,-953.994c-0,-559.028 228.877,-1008.68 686.632,-1348.96c457.756,-340.278 1087.67,-575.232 1889.76,-704.862l1519.1,-230.903l0,-170.139c0,-307.87 -64.814,-534.723 -194.444,-680.556c-129.63,-145.834 -348.38,-218.75 -656.251,-218.75c-186.343,-0 -340.278,32.407 -461.806,97.222c-121.528,64.815 -247.107,153.935 -376.737,267.361c-113.426,97.223 -198.495,162.038 -255.208,194.445c-24.306,64.815 -68.866,97.222 -133.681,97.222l-1324.65,0c-81.019,0 -147.859,-26.331 -200.521,-78.993c-52.662,-52.662 -74.942,-115.451 -66.841,-188.368c8.102,-218.75 115.452,-461.806 322.049,-729.167c206.598,-267.362 522.57,-498.265 947.918,-692.71c425.348,-194.444 949.943,-291.667 1573.79,-291.667c996.529,0 1733.8,220.776 2211.81,662.328c478.01,441.551 717.014,1035.01 717.014,1780.38l0,3694.45c0,81.019 -28.356,151.91 -85.069,212.674c-56.713,60.764 -129.63,91.146 -218.75,91.146l-1409.72,-0c-81.019,-0 -151.91,-30.382 -212.674,-91.146c-60.764,-60.764 -91.146,-131.655 -91.146,-212.674l0,-425.348c-178.241,251.158 -427.373,455.73 -747.397,613.716c-320.023,157.987 -698.785,236.98 -1136.29,236.98Zm571.182,-1385.42c372.685,-0 674.479,-121.528 905.382,-364.584c230.904,-243.056 346.355,-599.538 346.355,-1069.45l0,-170.139l-1032.99,182.292c-729.168,129.63 -1093.75,384.838 -1093.75,765.626c-0,202.546 85.069,362.558 255.208,480.035c170.139,117.477 376.737,176.216 619.793,176.216Z" style="fill:#fff;fill-rule:nonzero;"/><path d="M61836.7,23550.1c-1677.09,0 -2515.63,-798.033 -2515.63,-2394.1l0,-2333.34l-947.917,0c-89.121,0 -164.063,-28.356 -224.827,-85.07c-60.764,-56.713 -91.146,-129.629 -91.146,-218.75l0,-984.376c0,-89.12 30.382,-162.037 91.146,-218.75c60.764,-56.713 135.706,-85.07 224.827,-85.07l947.917,0l0,-2005.21c0,-89.121 30.382,-162.038 91.146,-218.751c60.764,-56.713 131.656,-85.069 212.674,-85.069l1409.72,-0c89.121,-0 162.037,28.356 218.75,85.069c56.713,56.713 85.07,129.63 85.07,218.751l-0,2005.21l1519.1,0c89.12,0 164.062,28.357 224.826,85.07c60.764,56.713 91.146,129.63 91.146,218.75l0,984.376c0,89.121 -30.382,162.037 -91.146,218.75c-60.764,56.714 -135.706,85.07 -224.826,85.07l-1519.1,0l-0,2163.2c-0,599.538 230.903,899.307 692.709,899.307l935.765,-0c89.12,-0 162.037,28.356 218.75,85.069c56.713,56.713 85.07,129.63 85.07,218.75l-0,1057.29c-0,81.019 -28.357,151.91 -85.07,212.674c-56.713,60.764 -129.63,91.146 -218.75,91.146l-1130.21,-0Z" style="fill:#fff;fill-rule:nonzero;"/><path d="M64571.1,16319.2c-89.12,-0 -162.037,-28.357 -218.75,-85.07c-56.713,-56.713 -85.069,-129.629 -85.069,-218.75l-0,-1093.75c-0,-89.121 28.356,-162.037 85.069,-218.75c56.713,-56.713 129.63,-85.07 218.75,-85.07l1458.34,0c89.121,0 162.038,28.357 218.751,85.07c56.713,56.713 85.069,129.629 85.069,218.75l0,1093.75c0,89.121 -28.356,162.037 -85.069,218.75c-56.713,56.713 -129.63,85.07 -218.751,85.07l-1458.34,-0Zm12.153,7230.91c-89.12,0 -162.037,-28.357 -218.75,-85.07c-56.713,-56.713 -85.07,-129.629 -85.07,-218.75l0,-5711.81c0,-89.12 28.357,-162.037 85.07,-218.75c56.713,-56.713 129.63,-85.07 218.75,-85.07l1434.03,0c89.12,0 162.037,28.357 218.75,85.07c56.713,56.713 85.069,129.63 85.069,218.75l0,5711.81c0,81.019 -28.356,151.91 -85.069,212.674c-56.713,60.764 -129.63,91.146 -218.75,91.146l-1434.03,0Z" style="fill:#fff;fill-rule:nonzero;"/><path d="M70744.7,23671.7c-1004.63,-0 -1778.36,-239.005 -2321.18,-717.015c-542.824,-478.01 -838.542,-1150.46 -887.153,-2017.36c-8.102,-105.324 -12.153,-287.616 -12.153,-546.876c-0,-259.259 4.051,-441.551 12.153,-546.875c48.611,-858.798 352.431,-1529.23 911.459,-2011.29c559.028,-482.061 1324.65,-723.092 2296.88,-723.092c980.325,0 1750,241.031 2309.03,723.092c559.028,482.06 862.848,1152.49 911.459,2011.29c8.102,105.324 12.153,287.616 12.153,546.875c0,259.26 -4.051,441.552 -12.153,546.876c-48.611,866.899 -344.329,1539.35 -887.153,2017.36c-542.825,478.01 -1320.6,717.015 -2333.34,717.015Zm-0,-1482.64c356.481,0 619.792,-107.349 789.931,-322.049c170.139,-214.699 267.361,-544.85 291.667,-990.452c8.102,-81.019 12.153,-243.056 12.153,-486.112c-0,-243.056 -4.051,-405.093 -12.153,-486.112c-24.306,-437.5 -123.553,-765.625 -297.743,-984.376c-174.19,-218.75 -435.475,-328.125 -783.855,-328.125c-672.455,0 -1028.94,437.5 -1069.45,1312.5l-12.153,486.112l12.153,486.112c16.204,445.602 111.401,775.753 285.591,990.452c174.19,214.7 435.475,322.049 783.855,322.049Z" style="fill:#fff;fill-rule:nonzero;"/><path d="M75484.3,23550.1c-89.12,0 -162.037,-28.357 -218.75,-85.07c-56.713,-56.713 -85.069,-129.629 -85.069,-218.75l-0,-5711.81c-0,-89.12 28.356,-162.037 85.069,-218.75c56.713,-56.713 129.63,-85.07 218.75,-85.07l1397.57,0c89.121,0 164.063,28.357 224.827,85.07c60.764,56.713 91.146,129.63 91.146,218.75l-0,461.806c218.75,-267.361 500.29,-482.061 844.619,-644.098c344.329,-162.037 735.244,-243.056 1172.74,-243.056c712.964,0 1292.25,241.031 1737.85,723.092c445.602,482.06 668.403,1156.54 668.403,2023.44l0,3390.63c0,81.019 -28.356,151.91 -85.069,212.674c-56.713,60.764 -129.63,91.146 -218.751,91.146l-1531.25,0c-81.019,0 -151.91,-30.382 -212.674,-91.146c-60.764,-60.764 -91.146,-131.655 -91.146,-212.674l-0,-3317.71c-0,-380.787 -93.172,-674.48 -279.514,-881.077c-186.343,-206.598 -453.705,-309.896 -802.085,-309.896c-340.278,-0 -607.639,103.298 -802.084,309.896c-194.445,206.597 -291.667,500.29 -291.667,881.077l0,3317.71c0,81.019 -28.356,151.91 -85.069,212.674c-56.713,60.764 -129.63,91.146 -218.751,91.146l-1519.1,0Z" style="fill:#fff;fill-rule:nonzero;"/><path d="M85595.4,23671.7c-656.251,-0 -1205.15,-93.171 -1646.7,-279.514c-441.552,-186.343 -767.652,-409.144 -978.3,-668.404c-210.648,-259.259 -315.973,-490.162 -315.973,-692.709c0,-81.019 30.382,-147.859 91.146,-200.521c60.764,-52.662 127.605,-78.993 200.521,-78.993l1385.42,-0c48.611,-0 93.171,20.254 133.68,60.764c97.223,64.815 170.139,117.477 218.751,157.986c178.241,129.63 334.201,224.827 467.882,285.591c133.681,60.764 297.744,91.146 492.188,91.146c234.954,-0 427.373,-46.586 577.258,-139.757c149.884,-93.172 224.826,-224.827 224.826,-394.966c0,-137.732 -38.483,-247.107 -115.451,-328.126c-76.968,-81.018 -224.827,-160.011 -443.577,-236.979c-218.75,-76.968 -550.927,-160.012 -996.529,-249.132c-672.454,-137.732 -1188.95,-362.559 -1549.48,-674.48c-360.533,-311.922 -540.799,-731.193 -540.799,-1257.81c-0,-332.176 105.324,-648.149 315.973,-947.918c210.648,-299.769 524.595,-542.825 941.841,-729.167c417.246,-186.343 913.485,-279.515 1488.72,-279.515c575.232,0 1077.55,89.121 1506.95,267.362c429.399,178.241 755.499,394.966 978.3,650.174c222.801,255.209 334.202,488.137 334.202,698.786c-0,72.916 -26.332,137.731 -78.994,194.444c-52.662,56.713 -115.451,85.07 -188.368,85.07l-1263.89,-0c-64.815,-0 -125.579,-20.255 -182.292,-60.764c-105.324,-56.713 -198.496,-117.477 -279.514,-182.292c-137.732,-105.324 -267.362,-186.343 -388.89,-243.056c-121.528,-56.713 -271.412,-85.069 -449.653,-85.069c-210.648,-0 -378.762,48.611 -504.341,145.833c-125.579,97.223 -188.368,222.801 -188.368,376.737c-0,121.528 34.433,222.801 103.299,303.82c68.865,81.018 214.699,160.011 437.5,236.979c222.801,76.968 552.952,155.961 990.453,236.979c785.88,137.732 1359.09,380.788 1719.62,729.168c360.533,348.38 540.799,757.524 540.799,1227.43c-0,599.538 -267.361,1079.57 -802.084,1440.11c-534.723,360.533 -1280.09,540.799 -2236.11,540.799Z" style="fill:#fff;fill-rule:nonzero;"/></g></g></svg>