<svg width="24" height="22" viewBox="0 0 24 22" fill="none" xmlns="http://www.w3.org/2000/svg">
<g filter="url(#filter0_d_23_84)">
<rect x="2" width="22" height="20" rx="4" fill="white"/>
</g>
<path d="M21.944 6.28904C21.9003 5.33127 21.748 4.67707 21.5256 4.10465C21.2999 3.50422 20.9453 2.96036 20.4877 2.5106C20.0385 2.05299 19.4941 1.69845 18.8937 1.47217C18.3212 1.24981 17.667 1.09802 16.7093 1.05433C15.7498 1.01064 15.4429 1 12.9992 1C10.5554 1 10.2485 1.01064 9.28904 1.05433C8.33127 1.09802 7.67707 1.25037 7.10465 1.47273C6.50366 1.69901 5.9598 2.05299 5.5106 2.51116C5.05299 2.96036 4.69845 3.50422 4.47217 4.10521C4.24981 4.67763 4.09802 5.33183 4.05433 6.2896C4.01008 7.24962 4 7.55599 4 10.0003C4 12.4446 4.01064 12.7509 4.05433 13.711C4.09802 14.6687 4.25037 15.3229 4.47273 15.8954C4.69845 16.4958 5.05299 17.0396 5.5106 17.4894C5.9598 17.947 6.50422 18.3016 7.10465 18.5273C7.67707 18.7496 8.33127 18.902 9.28904 18.9457C10.2485 18.9894 10.5554 19 12.9992 19C15.4429 19 15.7498 18.9899 16.7093 18.9457C17.667 18.902 18.3212 18.7496 18.8937 18.5273C20.1024 18.0601 21.0579 17.1041 21.5256 15.8954C21.748 15.3229 21.9003 14.6687 21.944 13.711C21.9877 12.7509 21.9983 12.4446 21.9983 10.0003C21.9983 7.55599 21.9877 7.24906 21.944 6.28904ZM20.3242 13.6359C20.2844 14.5136 20.1377 14.9897 20.0144 15.3067C19.7114 16.0914 19.0914 16.712 18.3067 17.0144C17.9897 17.1377 17.513 17.2844 16.6359 17.3242C15.6871 17.3673 15.4026 17.3768 12.9997 17.3768C10.5963 17.3768 10.3118 17.3679 9.36354 17.3242C8.48642 17.2844 8.00977 17.1377 7.69275 17.0144C7.3018 16.8699 6.94838 16.6403 6.65824 16.3412C6.35915 16.0511 6.12951 15.6976 5.985 15.3067C5.86178 14.9897 5.71503 14.513 5.67526 13.6359C5.63214 12.6871 5.62262 12.4026 5.62262 9.99972C5.62262 7.59688 5.63158 7.31235 5.67526 6.36354C5.71391 5.4853 5.8601 5.00921 5.98332 4.69219C6.12783 4.30124 6.35803 3.94726 6.65656 3.65712C6.94726 3.35803 7.30068 3.12839 7.69163 2.98388C8.00865 2.86066 8.4853 2.71391 9.36242 2.67414C10.3112 2.63102 10.5958 2.62206 12.9986 2.62206C15.4014 2.62206 15.686 2.63102 16.6348 2.67471C17.5125 2.71447 17.9885 2.86122 18.3056 2.98444C18.6965 3.12895 19.0499 3.35859 19.3401 3.65768C19.6392 3.94782 19.8688 4.3018 20.0133 4.69275C20.1365 5.00977 20.2833 5.48642 20.3231 6.36354C20.3662 7.31235 20.3757 7.59688 20.3757 9.99972C20.3757 12.4026 20.3673 12.6871 20.3242 13.6359Z" fill="url(#paint0_linear_23_84)"/>
<path d="M12.9986 5.37831C10.4462 5.37831 8.37776 7.44733 8.37776 9.99916C8.37776 12.551 10.4468 14.6206 12.9986 14.6206C15.551 14.6206 17.62 12.5515 17.62 9.99916C17.62 7.44677 15.551 5.37831 12.9986 5.37831ZM12.9986 12.9991C11.3424 12.9991 9.99925 11.6559 9.99925 9.99916C9.99925 8.34237 11.3424 6.99925 12.9992 6.99925C14.6559 6.99925 15.9991 8.34237 15.9991 9.99916C15.9991 11.6559 14.6554 12.9991 12.9986 12.9991Z" fill="url(#paint1_linear_23_84)"/>
<path d="M18.8825 5.19573C18.8825 5.79223 18.3991 6.2756 17.8026 6.2756C17.2061 6.2756 16.7227 5.79223 16.7227 5.19573C16.7227 4.59922 17.2061 4.11585 17.8026 4.11585C18.3991 4.11585 18.8825 4.59922 18.8825 5.19573Z" fill="url(#paint2_linear_23_84)"/>
<defs>
<filter id="filter0_d_23_84" x="0" y="0" width="24" height="22" filterUnits="userSpaceOnUse" color-interpolation-filters="sRGB">
<feFlood flood-opacity="0" result="BackgroundImageFix"/>
<feColorMatrix in="SourceAlpha" type="matrix" values="0 0 0 0 0 0 0 0 0 0 0 0 0 0 0 0 0 0 127 0" result="hardAlpha"/>
<feOffset dx="-1" dy="1"/>
<feGaussianBlur stdDeviation="0.5"/>
<feComposite in2="hardAlpha" operator="out"/>
<feColorMatrix type="matrix" values="0 0 0 0 0 0 0 0 0 0 0 0 0 0 0 0 0 0 0.25 0"/>
<feBlend mode="normal" in2="BackgroundImageFix" result="effect1_dropShadow_23_84"/>
<feBlend mode="normal" in="SourceGraphic" in2="effect1_dropShadow_23_84" result="shape"/>
</filter>
<linearGradient id="paint0_linear_23_84" x1="12.9989" y1="18.2038" x2="12.9989" y2="-27.825" gradientUnits="userSpaceOnUse">
<stop stop-color="#FFC0CB"/>
<stop offset="1" stop-color="#FD8CA7"/>
</linearGradient>
<linearGradient id="paint1_linear_23_84" x1="12.9988" y1="18.2038" x2="12.9988" y2="-27.825" gradientUnits="userSpaceOnUse">
<stop stop-color="#FFC0CB"/>
<stop offset="1" stop-color="#FD8CA7"/>
</linearGradient>
<linearGradient id="paint2_linear_23_84" x1="17.8026" y1="18.2038" x2="17.8026" y2="-27.825" gradientUnits="userSpaceOnUse">
<stop stop-color="#FFC0CB"/>
<stop offset="1" stop-color="#FD8CA7"/>
</linearGradient>
</defs>
</svg>
