<svg width="158" height="192" viewBox="0 0 158 192" fill="none" xmlns="http://www.w3.org/2000/svg">
<rect x="10.5" y="0.5" width="147" height="181" rx="0.5" fill="#F2CAD3" stroke="black"/>
<mask id="path-2-inside-1_19_43" fill="white">
<path d="M11 1H157V14H11V1Z"/>
</mask>
<path d="M11 1H157V14H11V1Z" fill="#D2ABCA"/>
<path d="M157 13H11V15H157V13Z" fill="black" mask="url(#path-2-inside-1_19_43)"/>
<path d="M63.8984 10.04C63.7161 10.04 63.625 9.94234 63.625 9.74702V4.7314C63.625 4.53609 63.7161 4.43843 63.8984 4.43843H64.4766C64.7005 4.43843 64.8698 4.52958 64.9844 4.71187L66.9766 7.91109H67.0039C66.9909 7.75484 66.9844 7.59859 66.9844 7.44234V4.7314C66.9844 4.53609 67.0755 4.43843 67.2578 4.43843H67.8516C68.0339 4.43843 68.125 4.53609 68.125 4.7314V9.74702C68.125 9.94234 68.0339 10.04 67.8516 10.04H67.3125C67.0885 10.04 66.9193 9.94885 66.8047 9.76656L64.7734 6.50874H64.7461C64.7591 6.66499 64.7656 6.82124 64.7656 6.97749V9.74702C64.7656 9.94234 64.6745 10.04 64.4922 10.04H63.8984ZM69.2225 7.98921C69.2225 7.32515 69.3931 6.80432 69.7342 6.42671C70.078 6.04911 70.5884 5.86031 71.2655 5.86031C71.9426 5.86031 72.4517 6.04911 72.7928 6.42671C73.1366 6.80432 73.3084 7.32515 73.3084 7.98921C73.3084 8.65327 73.1366 9.17411 72.7928 9.55171C72.4517 9.92932 71.9426 10.1181 71.2655 10.1181C70.5884 10.1181 70.078 9.92932 69.7342 9.55171C69.3931 9.17411 69.2225 8.65327 69.2225 7.98921ZM70.3787 7.98921C70.3787 8.484 70.4543 8.83557 70.6053 9.0439C70.759 9.24963 70.979 9.35249 71.2655 9.35249C71.5519 9.35249 71.7707 9.24963 71.9217 9.0439C72.0754 8.83557 72.1522 8.484 72.1522 7.98921C72.1522 7.49442 72.0754 7.14416 71.9217 6.93843C71.7707 6.7301 71.5519 6.62593 71.2655 6.62593C70.979 6.62593 70.759 6.7301 70.6053 6.93843C70.4543 7.14416 70.3787 7.49442 70.3787 7.98921ZM74.1755 6.71968C74.0218 6.71968 73.945 6.65458 73.945 6.52437V6.13374C73.945 6.00353 74.0218 5.93843 74.1755 5.93843H74.4411V5.80171C74.4411 5.68452 74.4684 5.57775 74.5231 5.4814L74.8239 4.95406C74.8812 4.8551 74.9489 4.80562 75.027 4.80562H75.3005C75.4567 4.80562 75.5348 4.88374 75.5348 5.03999V5.93843H76.1677C76.3213 5.93843 76.3981 6.00353 76.3981 6.13374V6.52437C76.3981 6.65458 76.3213 6.71968 76.1677 6.71968H75.5348V8.65718C75.5348 8.92281 75.5531 9.11421 75.5895 9.2314C75.6286 9.34598 75.7276 9.40327 75.8864 9.40327C75.9671 9.40327 76.0583 9.39025 76.1598 9.36421C76.2614 9.33557 76.3408 9.30822 76.3981 9.28218C76.4893 9.24051 76.5492 9.27046 76.5778 9.37202L76.695 9.81734C76.7184 9.90588 76.6846 9.97098 76.5934 10.0126C76.5075 10.0517 76.389 10.0869 76.238 10.1181C76.0895 10.152 75.9398 10.1689 75.7887 10.1689C75.4164 10.1689 75.0986 10.0921 74.8356 9.93843C74.5726 9.78478 74.4411 9.46838 74.4411 8.98921V6.71968H74.1755ZM77.3706 7.98921C77.3706 7.33036 77.5347 6.81083 77.8628 6.43062C78.1935 6.05041 78.6597 5.86031 79.2612 5.86031C79.9592 5.86031 80.4774 6.03999 80.8159 6.39937C81.1545 6.75874 81.3237 7.33687 81.3237 8.13374C81.3237 8.28999 81.2508 8.36812 81.105 8.36812H78.5269C78.5685 8.80041 78.6753 9.07255 78.8472 9.18452C79.0191 9.2965 79.2183 9.35249 79.4448 9.35249C79.661 9.35249 79.8264 9.32385 79.9409 9.26656C80.0555 9.20926 80.1519 9.13114 80.23 9.03218C80.3185 8.9176 80.4279 8.89937 80.5581 8.97749L80.9487 9.21577C81.1024 9.30952 81.1245 9.4215 81.0152 9.55171C80.8563 9.74182 80.6701 9.88374 80.4566 9.97749C80.243 10.0712 79.9058 10.1181 79.4448 10.1181C78.6974 10.1181 78.1649 9.92801 77.8472 9.54781C77.5295 9.1676 77.3706 8.64807 77.3706 7.98921ZM78.5308 7.58687H80.23C80.23 7.30562 80.1597 7.07645 80.0191 6.89937C79.8784 6.71968 79.6545 6.62984 79.3472 6.62984C79.1024 6.62984 78.9084 6.71577 78.7652 6.88765C78.6219 7.05692 78.5438 7.28999 78.5308 7.58687ZM85.5969 10.04C85.4146 10.04 85.3234 9.94234 85.3234 9.74702V4.7314C85.3234 4.53609 85.4146 4.43843 85.5969 4.43843H87.0578C87.9953 4.43843 88.6451 4.59077 89.007 4.89546C89.3716 5.20015 89.5539 5.63244 89.5539 6.19234C89.5539 6.75223 89.3716 7.18452 89.007 7.48921C88.6451 7.7939 87.9953 7.94624 87.0578 7.94624H86.4641V9.74702C86.4641 9.94234 86.3729 10.04 86.1906 10.04H85.5969ZM86.4641 6.99312H87.0539C87.5747 6.99312 87.9289 6.93192 88.1164 6.80952C88.3039 6.68452 88.3977 6.4788 88.3977 6.19234C88.3977 5.90588 88.3039 5.70145 88.1164 5.57906C87.9289 5.45406 87.5747 5.39156 87.0539 5.39156H86.4641V6.99312ZM90.3584 8.94624C90.3584 8.42541 90.6071 8.04781 91.1045 7.81343C91.6019 7.57906 92.1696 7.45406 92.8077 7.43843V7.28218C92.8077 7.0426 92.7478 6.87333 92.628 6.77437C92.5082 6.67541 92.3415 6.62593 92.128 6.62593C91.9769 6.62593 91.8428 6.64807 91.7256 6.69234C91.611 6.734 91.5108 6.78348 91.4248 6.84077C91.3415 6.89546 91.266 6.95145 91.1983 7.00874C91.0785 7.11291 90.9795 7.11812 90.9014 7.02437L90.5772 6.62593C90.4965 6.52697 90.516 6.42541 90.6358 6.32124C90.7269 6.24051 90.8324 6.1702 90.9522 6.11031C91.0746 6.05041 91.236 5.99442 91.4366 5.94234C91.6371 5.88765 91.8975 5.86031 92.2178 5.86031C92.7595 5.86031 93.1748 5.98531 93.4639 6.23531C93.7556 6.48531 93.9014 6.8538 93.9014 7.34077V9.80562C93.9014 9.96187 93.8233 10.04 93.667 10.04H93.0264C92.8858 10.04 92.8155 9.96187 92.8155 9.80562V9.68843H92.8077C92.654 9.83687 92.4691 9.94624 92.253 10.0166C92.0394 10.0843 91.8428 10.1181 91.6631 10.1181C91.236 10.1181 90.9118 10.014 90.6905 9.80562C90.4691 9.59468 90.3584 9.30822 90.3584 8.94624ZM91.5147 8.92281C91.5147 9.01395 91.5329 9.09338 91.5694 9.16109C91.6058 9.22619 91.6631 9.27437 91.7412 9.30562C91.8194 9.33687 91.9066 9.35249 92.003 9.35249C92.1358 9.35249 92.2647 9.33426 92.3897 9.29781C92.5147 9.26135 92.654 9.17541 92.8077 9.03999V8.19234C92.3702 8.24182 92.0772 8.30562 91.9287 8.38374C91.7803 8.46187 91.6735 8.5426 91.6084 8.62593C91.5459 8.70926 91.5147 8.80822 91.5147 8.92281ZM94.9091 7.98921C94.9091 7.4163 95.0328 6.9189 95.2802 6.49702C95.5302 6.07255 95.9611 5.86031 96.5731 5.86031C96.8075 5.86031 97.008 5.89416 97.1747 5.96187C97.3414 6.02958 97.4924 6.17541 97.6278 6.39937H97.6434C97.633 6.2952 97.6278 6.19103 97.6278 6.08687V4.50874C97.6278 4.35249 97.7059 4.27437 97.8622 4.27437H98.4872C98.6434 4.27437 98.7216 4.35249 98.7216 4.50874V9.80562C98.7216 9.96187 98.6434 10.04 98.4872 10.04H97.87C97.7398 10.04 97.6695 9.96187 97.6591 9.80562L97.6434 9.57906H97.6278C97.4924 9.80301 97.3414 9.94885 97.1747 10.0166C97.008 10.0843 96.8075 10.1181 96.5731 10.1181C95.9611 10.1181 95.5302 9.90718 95.2802 9.48531C95.0328 9.06083 94.9091 8.56213 94.9091 7.98921ZM96.0653 7.98921C96.0653 8.40588 96.1187 8.73791 96.2255 8.98531C96.3348 9.2301 96.5653 9.35249 96.9169 9.35249C97.1122 9.35249 97.2789 9.24312 97.4169 9.02437C97.5575 8.80301 97.6278 8.51656 97.6278 8.16499V7.81343C97.6278 7.46187 97.5575 7.17671 97.4169 6.95796C97.2789 6.73661 97.1122 6.62593 96.9169 6.62593C96.5653 6.62593 96.3348 6.74963 96.2255 6.99702C96.1187 7.24182 96.0653 7.57255 96.0653 7.98921Z" fill="black"/>
<path d="M11.7222 160.105L32.2815 160.105L32.2815 180.308L11.7222 160.105Z" fill="#E5CEE2" stroke="black"/>
<path d="M11 181L11 160L32.5 181L11 181Z" fill="#F9BCC6"/>
</svg>
